<?xml version="1.0" encoding="utf-8"?>
<!-- Generator: Adobe Illustrator 13.0.0, SVG Export Plug-In . SVG Version: 6.00 Build 14948)  -->
<!DOCTYPE svg PUBLIC "-//W3C//DTD SVG 1.1//EN" "http://www.w3.org/Graphics/SVG/1.1/DTD/svg11.dtd">
<svg version="1.1" id="Layer_1" xmlns="http://www.w3.org/2000/svg" xmlns:xlink="http://www.w3.org/1999/xlink" x="0px" y="0px"
	 width="681.574px" height="600px" viewBox="0 0 681.574 600" enable-background="new 0 0 681.574 600" xml:space="preserve">
<line fill="none" stroke="#B2B2B2" stroke-dasharray="12,12" x1="611.5" y1="55.5" x2="611.5" y2="550.5"/>
<path fill="none" stroke="#FBB03B" stroke-width="3" stroke-dasharray="4,4" d="M393.166,135.167
	c88.666-14.667,194.666-39.604,218.666-80.271"/>
<g>
	<g>
		<line fill="none" x1="68" y1="70" x2="68" y2="50"/>
		<g>
			<g>
				<polygon fill="#202020" points="71.289,70 68,50 64.711,70 				"/>
			</g>
		</g>
	</g>
</g>
<g>
	<g>
		<line fill="none" x1="634.5" y1="550" x2="654.5" y2="550"/>
		<g>
			<g>
				<polygon fill="#202020" points="634.5,553.289 654.5,550 634.5,546.711 				"/>
			</g>
		</g>
	</g>
</g>
<line fill="none" stroke="#C1272D" stroke-width="3" x1="150.831" y1="239.5" x2="161.549" y2="199.5"/>
<line fill="none" stroke="#0071BC" stroke-width="3" x1="67.5" y1="550.5" x2="150.831" y2="239.5"/>
<path fill="none" stroke="#C1272D" stroke-width="3" d="M161.549,199.5c0,0,1.029-3.831,2.883-3.896
	c1.853,4.728,4.53,20.185,7.824,2.752c1.647,32.01,3.449,34.603,5.379,1.114c1.931-23.427,3.989-24.74,6.151-4.002
	c1.441-39.834,2.929-9.012,4.454-19.459c1.525-23.414,3.088,12.763,4.682,8.987c1.594,25.401,3.218,13.057,4.866,10.631
	c1.647-21.419,3.317,19.925,5.002,4.365c1.686-48.58,3.386,0.676,5.094-3.475c1.708-14.972,3.424,15.041,5.14-6.59
	c1.716-12.894,3.432,9.567,5.14,12.804c1.708,9.63,3.409,3.389,5.094-11.666c1.685,25.73,3.355,7.731,5.002,1.305
	c1.647,9.395,3.271,3.87,4.866-5.438c1.594,4.745,3.157-15.744,4.682,5.299c1.525-23.021,3.012-14.642,4.454,6.966
	c1.441,15.524,2.837,21.08,4.179,2.627c1.342,5.913,2.631,13.903,3.859-0.608c1.228,2.096,2.395-26.373,3.493-11.575
	c1.647,11.427,3.14-14.11,4.453-9.157c1.313-0.181,2.445,1.454,3.372,1.74c1.854-0.523,2.883,1.235,2.883,6.273"/>
<path fill="none" stroke="#C1272D" stroke-width="3" d="M264.5,188.5c200.666-116.667,347.333-49.333,347,77"/>
<path fill="none" stroke="#2E3192" stroke-width="3" d="M611.5,265.5"/>
<path fill="none" stroke="#2E3192" stroke-width="3" d="M425.5,119.5"/>
<line fill="none" stroke="#0071BC" stroke-width="3" x1="108" y1="490" x2="133" y2="490"/>
<g>
	<path d="M139.79,493.167v-1.283l4.881-6.82c-0.557,0.035-1.046,0.053-1.469,0.053h-3.123v-1.283h6.267v1.046l-4.157,5.924
		l-0.801,1.081c0.58-0.053,1.125-0.079,1.635-0.079h3.543v1.362H139.79z"/>
	<path d="M152.85,492.016c-0.434,0.451-0.885,0.791-1.354,1.02s-0.955,0.343-1.459,0.343c-0.797,0-1.433-0.24-1.907-0.721
		s-0.712-1.128-0.712-1.942c0-0.539,0.111-1.017,0.334-1.433s0.527-0.741,0.914-0.976s0.973-0.407,1.758-0.519
		c1.055-0.154,1.828-0.339,2.32-0.554l0.009-0.404c0-0.639-0.114-1.087-0.343-1.345c-0.322-0.375-0.817-0.563-1.485-0.563
		c-0.604,0-1.055,0.125-1.354,0.375c-0.299,0.251-0.519,0.721-0.659,1.409l-1.274-0.211c0.182-1.002,0.549-1.731,1.103-2.188
		s1.346-0.686,2.377-0.686c0.803,0,1.433,0.151,1.89,0.452c0.457,0.303,0.746,0.676,0.866,1.121s0.18,1.096,0.18,1.951v2.109
		c0,1.477,0.028,2.407,0.083,2.791s0.166,0.757,0.33,1.12h-1.354C152.979,492.845,152.891,492.461,152.85,492.016z M152.744,488.482
		c-0.475,0.234-1.181,0.434-2.118,0.598c-0.545,0.094-0.926,0.201-1.143,0.32c-0.217,0.121-0.385,0.291-0.505,0.51
		c-0.12,0.221-0.18,0.474-0.18,0.761c0,0.445,0.138,0.802,0.413,1.067c0.275,0.268,0.656,0.4,1.143,0.4
		c0.463,0,0.883-0.12,1.261-0.36s0.661-0.561,0.848-0.962s0.281-0.986,0.281-1.754V488.482z"/>
	<path d="M155.921,493.167v-12.885h1.292v7.359l3.08-3.809h1.679l-2.927,3.466l3.218,5.868h-1.591l-2.542-4.784l-0.916,1.084v3.7
		H155.921z"/>
	<path d="M163.247,493.167v-9.334h1.169v1.415c0.299-0.656,0.573-1.091,0.822-1.305s0.529-0.321,0.839-0.321
		c0.434,0,0.876,0.17,1.327,0.51l-0.439,1.468c-0.322-0.229-0.636-0.343-0.94-0.343c-0.275,0-0.527,0.097-0.756,0.29
		s-0.39,0.463-0.483,0.809c-0.164,0.604-0.246,1.245-0.246,1.925v4.887H163.247z"/>
	<path d="M173.282,490.161l1.336,0.202c-0.223,0.996-0.625,1.748-1.208,2.254c-0.583,0.508-1.305,0.761-2.167,0.761
		c-1.084,0-1.961-0.411-2.632-1.235c-0.671-0.822-1.006-2.011-1.006-3.563c0-1.611,0.338-2.84,1.015-3.687s1.534-1.271,2.571-1.271
		c0.99,0,1.816,0.416,2.479,1.248s0.993,2.036,0.993,3.612l-0.009,0.422h-5.713c0.053,1.049,0.296,1.84,0.729,2.373
		s0.961,0.8,1.582,0.8C172.224,492.077,172.901,491.438,173.282,490.161z M169.019,487.604h4.271
		c-0.059-0.809-0.231-1.412-0.519-1.811c-0.416-0.58-0.946-0.87-1.591-0.87c-0.58,0-1.075,0.241-1.485,0.726
		C169.286,486.131,169.06,486.783,169.019,487.604z"/>
	<path d="M175.668,490.372l1.292-0.246c0.076,0.659,0.284,1.149,0.623,1.47c0.339,0.321,0.789,0.481,1.35,0.481
		c0.562,0,0.996-0.139,1.302-0.417c0.307-0.278,0.46-0.632,0.46-1.06c0-0.369-0.132-0.656-0.396-0.861
		c-0.182-0.141-0.621-0.316-1.318-0.527c-1.008-0.311-1.682-0.574-2.021-0.791s-0.604-0.507-0.791-0.87s-0.281-0.776-0.281-1.239
		c0-0.797,0.255-1.444,0.765-1.942s1.216-0.747,2.118-0.747c0.568,0,1.068,0.103,1.499,0.308s0.76,0.48,0.989,0.826
		s0.387,0.841,0.475,1.485l-1.266,0.211c-0.117-1.02-0.671-1.529-1.661-1.529c-0.563,0-0.981,0.112-1.257,0.337
		s-0.413,0.512-0.413,0.862c0,0.345,0.132,0.616,0.396,0.814c0.159,0.116,0.628,0.303,1.409,0.56
		c1.074,0.341,1.768,0.612,2.083,0.814c0.315,0.203,0.56,0.479,0.735,0.828s0.263,0.765,0.263,1.246
		c0,0.892-0.283,1.614-0.848,2.166s-1.337,0.827-2.316,0.827C177.025,493.378,175.961,492.376,175.668,490.372z"/>
	<path d="M187.156,490.372l1.292-0.246c0.076,0.659,0.284,1.149,0.623,1.47c0.339,0.321,0.789,0.481,1.35,0.481
		c0.562,0,0.996-0.139,1.302-0.417c0.307-0.278,0.46-0.632,0.46-1.06c0-0.369-0.132-0.656-0.396-0.861
		c-0.182-0.141-0.621-0.316-1.318-0.527c-1.008-0.311-1.682-0.574-2.021-0.791s-0.604-0.507-0.791-0.87s-0.281-0.776-0.281-1.239
		c0-0.797,0.255-1.444,0.765-1.942s1.216-0.747,2.118-0.747c0.568,0,1.068,0.103,1.499,0.308s0.76,0.48,0.989,0.826
		s0.387,0.841,0.475,1.485l-1.266,0.211c-0.117-1.02-0.671-1.529-1.661-1.529c-0.563,0-0.981,0.112-1.257,0.337
		s-0.413,0.512-0.413,0.862c0,0.345,0.132,0.616,0.396,0.814c0.159,0.116,0.628,0.303,1.409,0.56
		c1.074,0.341,1.768,0.612,2.083,0.814c0.315,0.203,0.56,0.479,0.735,0.828s0.263,0.765,0.263,1.246
		c0,0.892-0.283,1.614-0.848,2.166s-1.337,0.827-2.316,0.827C188.512,493.378,187.449,492.376,187.156,490.372z"/>
	<path d="M197.712,491.752l0.176,1.397c-0.357,0.094-0.68,0.141-0.967,0.141c-0.451,0-0.814-0.09-1.09-0.269
		c-0.275-0.178-0.464-0.423-0.567-0.733s-0.154-0.929-0.154-1.854v-5.37h-0.949v-1.23h0.949v-2.312l1.292-0.949v3.261h1.31v1.23
		h-1.31v5.458c0,0.504,0.038,0.829,0.114,0.976c0.111,0.211,0.319,0.316,0.624,0.316
		C197.287,491.813,197.478,491.793,197.712,491.752z"/>
	<path d="M198.259,488.5c0-1.611,0.338-2.827,1.015-3.647s1.534-1.23,2.571-1.23c1.02,0,1.872,0.41,2.558,1.23
		s1.028,2.004,1.028,3.551c0,1.676-0.337,2.924-1.011,3.744s-1.532,1.23-2.575,1.23c-1.025,0-1.879-0.411-2.562-1.235
		C198.601,491.32,198.259,490.105,198.259,488.5z M199.586,488.496c0,1.208,0.22,2.107,0.659,2.696
		c0.439,0.59,0.984,0.885,1.635,0.885c0.609,0,1.132-0.298,1.569-0.894c0.437-0.595,0.655-1.491,0.655-2.688
		c0-1.203-0.22-2.1-0.659-2.688c-0.439-0.59-0.984-0.885-1.635-0.885c-0.615,0-1.14,0.296-1.573,0.889
		S199.586,487.299,199.586,488.496z"/>
	<path d="M206.359,490.372l1.292-0.246c0.076,0.659,0.284,1.149,0.623,1.47c0.339,0.321,0.789,0.481,1.35,0.481
		c0.562,0,0.996-0.139,1.302-0.417c0.307-0.278,0.46-0.632,0.46-1.06c0-0.369-0.132-0.656-0.396-0.861
		c-0.182-0.141-0.621-0.316-1.318-0.527c-1.008-0.311-1.682-0.574-2.021-0.791s-0.604-0.507-0.791-0.87s-0.281-0.776-0.281-1.239
		c0-0.797,0.255-1.444,0.765-1.942s1.216-0.747,2.118-0.747c0.568,0,1.068,0.103,1.499,0.308s0.76,0.48,0.989,0.826
		s0.387,0.841,0.475,1.485l-1.266,0.211c-0.117-1.02-0.671-1.529-1.661-1.529c-0.563,0-0.981,0.112-1.257,0.337
		s-0.413,0.512-0.413,0.862c0,0.345,0.132,0.616,0.396,0.814c0.159,0.116,0.628,0.303,1.409,0.56
		c1.074,0.341,1.768,0.612,2.083,0.814c0.315,0.203,0.56,0.479,0.735,0.828s0.263,0.765,0.263,1.246
		c0,0.892-0.283,1.614-0.848,2.166s-1.337,0.827-2.316,0.827C207.715,493.378,206.652,492.376,206.359,490.372z"/>
	<path d="M213.666,488.5c0-1.611,0.338-2.827,1.015-3.647s1.534-1.23,2.571-1.23c1.02,0,1.872,0.41,2.558,1.23
		s1.028,2.004,1.028,3.551c0,1.676-0.337,2.924-1.011,3.744s-1.532,1.23-2.575,1.23c-1.025,0-1.879-0.411-2.562-1.235
		C214.007,491.32,213.666,490.105,213.666,488.5z M214.993,488.496c0,1.208,0.22,2.107,0.659,2.696
		c0.439,0.59,0.984,0.885,1.635,0.885c0.609,0,1.132-0.298,1.569-0.894c0.437-0.595,0.655-1.491,0.655-2.688
		c0-1.203-0.22-2.1-0.659-2.688c-0.439-0.59-0.984-0.885-1.635-0.885c-0.615,0-1.14,0.296-1.573,0.889
		S214.993,487.299,214.993,488.496z"/>
	<path d="M223.575,493.167l-2.352-9.334h1.341l1.219,5.388l0.45,2.004l0.405-1.925l1.214-5.467h1.339l1.139,5.414l0.385,1.784
		l0.438-1.802l1.306-5.396h1.266l-2.389,9.334h-1.351l-1.222-5.59l-0.29-1.591l-1.547,7.181H223.575z"/>
	<path d="M237.563,492.016c-0.434,0.451-0.885,0.791-1.354,1.02s-0.955,0.343-1.459,0.343c-0.797,0-1.433-0.24-1.907-0.721
		s-0.712-1.128-0.712-1.942c0-0.539,0.111-1.017,0.334-1.433s0.527-0.741,0.914-0.976s0.973-0.407,1.758-0.519
		c1.055-0.154,1.828-0.339,2.32-0.554l0.009-0.404c0-0.639-0.114-1.087-0.343-1.345c-0.322-0.375-0.817-0.563-1.485-0.563
		c-0.604,0-1.055,0.125-1.354,0.375c-0.299,0.251-0.519,0.721-0.659,1.409l-1.274-0.211c0.182-1.002,0.549-1.731,1.103-2.188
		s1.346-0.686,2.377-0.686c0.803,0,1.433,0.151,1.89,0.452c0.457,0.303,0.746,0.676,0.866,1.121s0.18,1.096,0.18,1.951v2.109
		c0,1.477,0.028,2.407,0.083,2.791s0.166,0.757,0.33,1.12h-1.354C237.692,492.845,237.604,492.461,237.563,492.016z
		 M237.458,488.482c-0.475,0.234-1.181,0.434-2.118,0.598c-0.545,0.094-0.926,0.201-1.143,0.32c-0.217,0.121-0.385,0.291-0.505,0.51
		c-0.12,0.221-0.18,0.474-0.18,0.761c0,0.445,0.138,0.802,0.413,1.067c0.275,0.268,0.656,0.4,1.143,0.4
		c0.463,0,0.883-0.12,1.261-0.36s0.661-0.561,0.848-0.962s0.281-0.986,0.281-1.754V488.482z"/>
	<path d="M240.592,493.167v-12.885h1.292v12.885H240.592z"/>
	<path d="M243.734,493.167v-9.334h1.169v1.318c0.281-0.513,0.625-0.896,1.031-1.149c0.407-0.253,0.873-0.38,1.399-0.38
		c0.41,0,0.788,0.081,1.136,0.241c0.348,0.162,0.629,0.373,0.842,0.633c0.213,0.262,0.373,0.6,0.479,1.016
		c0.105,0.416,0.158,1.055,0.158,1.916v5.739h-1.292v-5.684c0-0.687-0.059-1.188-0.176-1.505s-0.3-0.562-0.549-0.734
		s-0.538-0.26-0.866-0.26c-0.621,0-1.116,0.231-1.485,0.695c-0.369,0.463-0.554,1.258-0.554,2.384v5.104H243.734z"/>
	<path d="M251.343,488.5c0-1.611,0.338-2.827,1.015-3.647s1.534-1.23,2.571-1.23c1.02,0,1.872,0.41,2.558,1.23
		s1.028,2.004,1.028,3.551c0,1.676-0.337,2.924-1.011,3.744s-1.532,1.23-2.575,1.23c-1.025,0-1.879-0.411-2.562-1.235
		C251.685,491.32,251.343,490.105,251.343,488.5z M252.67,488.496c0,1.208,0.22,2.107,0.659,2.696
		c0.439,0.59,0.984,0.885,1.635,0.885c0.609,0,1.132-0.298,1.569-0.894c0.437-0.595,0.655-1.491,0.655-2.688
		c0-1.203-0.22-2.1-0.659-2.688c-0.439-0.59-0.984-0.885-1.635-0.885c-0.615,0-1.14,0.296-1.573,0.889
		S252.67,487.299,252.67,488.496z"/>
	<path d="M259.527,490.372l1.292-0.246c0.076,0.659,0.283,1.149,0.623,1.47c0.339,0.321,0.789,0.481,1.35,0.481
		c0.562,0,0.996-0.139,1.302-0.417c0.307-0.278,0.46-0.632,0.46-1.06c0-0.369-0.132-0.656-0.396-0.861
		c-0.182-0.141-0.621-0.316-1.318-0.527c-1.008-0.311-1.682-0.574-2.021-0.791s-0.604-0.507-0.791-0.87s-0.281-0.776-0.281-1.239
		c0-0.797,0.255-1.444,0.765-1.942s1.216-0.747,2.118-0.747c0.568,0,1.068,0.103,1.499,0.308s0.76,0.48,0.989,0.826
		s0.387,0.841,0.475,1.485l-1.266,0.211c-0.117-1.02-0.671-1.529-1.661-1.529c-0.563,0-0.981,0.112-1.257,0.337
		s-0.413,0.512-0.413,0.862c0,0.345,0.132,0.616,0.396,0.814c0.159,0.116,0.628,0.303,1.409,0.56
		c1.074,0.341,1.768,0.612,2.083,0.814c0.315,0.203,0.56,0.479,0.735,0.828s0.263,0.765,0.263,1.246
		c0,0.892-0.283,1.614-0.848,2.166s-1.337,0.827-2.316,0.827C260.884,493.378,259.82,492.376,259.527,490.372z M261.637,482.673
		l0.958-2.461h1.696l-1.582,2.461H261.637z"/>
	<path d="M272.376,489.748l1.274,0.202c-0.146,1.113-0.514,1.963-1.103,2.549s-1.296,0.879-2.123,0.879
		c-1.002,0-1.827-0.411-2.474-1.235c-0.647-0.822-0.971-2.04-0.971-3.651c0-1.623,0.327-2.84,0.98-3.651s1.493-1.218,2.518-1.218
		c0.791,0,1.458,0.246,2,0.738s0.889,1.23,1.042,2.215l-1.257,0.229c-0.123-0.63-0.337-1.101-0.642-1.413
		c-0.305-0.312-0.671-0.468-1.099-0.468c-0.639,0-1.167,0.283-1.586,0.849s-0.628,1.463-0.628,2.693c0,1.271,0.201,2.191,0.602,2.76
		s0.916,0.853,1.542,0.853c0.492,0,0.913-0.188,1.261-0.567C272.061,491.133,272.282,490.545,272.376,489.748z"/>
	<path d="M274.774,482.102v-1.819h1.292v1.819H274.774z M274.774,493.167v-9.334h1.292v9.334H274.774z"/>
	<path d="M282.157,496.744v-12.911h1.195v1.213c0.292-0.504,0.617-0.867,0.974-1.09c0.356-0.223,0.766-0.334,1.229-0.334
		c0.603,0,1.146,0.179,1.632,0.536c0.486,0.357,0.876,0.9,1.171,1.631c0.295,0.729,0.443,1.606,0.443,2.632
		c0,1.588-0.333,2.812-0.998,3.669c-0.665,0.859-1.446,1.288-2.342,1.288c-0.398,0-0.771-0.103-1.116-0.308s-0.645-0.495-0.896-0.87
		v4.544H282.157z M283.336,488.553c0,1.207,0.202,2.096,0.605,2.668c0.403,0.57,0.891,0.856,1.464,0.856
		c0.549,0,1.031-0.296,1.446-0.888s0.623-1.506,0.623-2.742c0-1.219-0.202-2.121-0.605-2.707s-0.894-0.879-1.473-0.879
		c-0.521,0-0.994,0.315-1.42,0.945S283.336,487.352,283.336,488.553z"/>
	<path d="M290.249,493.167v-9.334h1.169v1.415c0.299-0.656,0.573-1.091,0.822-1.305s0.529-0.321,0.839-0.321
		c0.434,0,0.876,0.17,1.327,0.51l-0.439,1.468c-0.322-0.229-0.636-0.343-0.94-0.343c-0.275,0-0.527,0.097-0.756,0.29
		s-0.39,0.463-0.483,0.809c-0.164,0.604-0.246,1.245-0.246,1.925v4.887H290.249z"/>
	<path d="M300.083,492.016c-0.434,0.451-0.885,0.791-1.354,1.02s-0.955,0.343-1.459,0.343c-0.797,0-1.433-0.24-1.907-0.721
		s-0.712-1.128-0.712-1.942c0-0.539,0.111-1.017,0.334-1.433s0.527-0.741,0.914-0.976s0.973-0.407,1.758-0.519
		c1.055-0.154,1.828-0.339,2.32-0.554l0.009-0.404c0-0.639-0.114-1.087-0.343-1.345c-0.322-0.375-0.817-0.563-1.485-0.563
		c-0.604,0-1.055,0.125-1.354,0.375c-0.299,0.251-0.519,0.721-0.659,1.409l-1.274-0.211c0.182-1.002,0.549-1.731,1.103-2.188
		s1.346-0.686,2.377-0.686c0.803,0,1.433,0.151,1.89,0.452c0.457,0.303,0.746,0.676,0.866,1.121s0.18,1.096,0.18,1.951v2.109
		c0,1.477,0.028,2.407,0.083,2.791s0.166,0.757,0.33,1.12h-1.354C300.211,492.845,300.124,492.461,300.083,492.016z
		 M299.977,488.482c-0.475,0.234-1.181,0.434-2.118,0.598c-0.545,0.094-0.926,0.201-1.143,0.32c-0.217,0.121-0.385,0.291-0.505,0.51
		c-0.12,0.221-0.18,0.474-0.18,0.761c0,0.445,0.138,0.802,0.413,1.067c0.275,0.268,0.656,0.4,1.143,0.4
		c0.463,0,0.883-0.12,1.261-0.36s0.661-0.561,0.848-0.962s0.281-0.986,0.281-1.754V488.482z"/>
	<path d="M304.471,493.167l-2.352-9.334h1.341l1.219,5.388l0.451,2.004l0.405-1.925l1.214-5.467h1.339l1.139,5.414l0.385,1.784
		l0.438-1.802l1.306-5.396h1.266l-2.389,9.334h-1.351l-1.222-5.59l-0.29-1.591l-1.547,7.181H304.471z"/>
	<path d="M318.459,492.016c-0.434,0.451-0.885,0.791-1.354,1.02s-0.955,0.343-1.459,0.343c-0.797,0-1.433-0.24-1.907-0.721
		s-0.712-1.128-0.712-1.942c0-0.539,0.111-1.017,0.334-1.433s0.527-0.741,0.914-0.976s0.973-0.407,1.758-0.519
		c1.055-0.154,1.828-0.339,2.32-0.554l0.009-0.404c0-0.639-0.114-1.087-0.343-1.345c-0.322-0.375-0.817-0.563-1.485-0.563
		c-0.604,0-1.055,0.125-1.354,0.375c-0.299,0.251-0.519,0.721-0.659,1.409l-1.274-0.211c0.182-1.002,0.549-1.731,1.103-2.188
		s1.346-0.686,2.377-0.686c0.803,0,1.433,0.151,1.89,0.452c0.457,0.303,0.746,0.676,0.866,1.121s0.181,1.096,0.181,1.951v2.109
		c0,1.477,0.027,2.407,0.083,2.791s0.165,0.757,0.329,1.12h-1.353C318.588,492.845,318.5,492.461,318.459,492.016z M318.354,488.482
		c-0.475,0.234-1.181,0.434-2.118,0.598c-0.545,0.094-0.926,0.201-1.143,0.32c-0.217,0.121-0.385,0.291-0.505,0.51
		c-0.12,0.221-0.18,0.474-0.18,0.761c0,0.445,0.138,0.802,0.413,1.067c0.275,0.268,0.656,0.4,1.143,0.4
		c0.463,0,0.883-0.12,1.261-0.36s0.661-0.561,0.848-0.962s0.281-0.986,0.281-1.754V488.482z"/>
	<path d="M325.966,493.167v-12.885h1.397v5.291h5.493v-5.291h1.397v12.885h-1.397v-6.073h-5.493v6.073H325.966z"/>
	<path d="M335.959,488.5c0-1.611,0.338-2.827,1.016-3.647c0.676-0.82,1.533-1.23,2.57-1.23c1.02,0,1.872,0.41,2.558,1.23
		s1.028,2.004,1.028,3.551c0,1.676-0.337,2.924-1.011,3.744s-1.532,1.23-2.575,1.23c-1.025,0-1.88-0.411-2.563-1.235
		C336.3,491.32,335.959,490.105,335.959,488.5z M337.286,488.496c0,1.208,0.22,2.107,0.659,2.696
		c0.439,0.59,0.984,0.885,1.635,0.885c0.609,0,1.132-0.298,1.568-0.894c0.437-0.595,0.655-1.491,0.655-2.688
		c0-1.203-0.22-2.1-0.659-2.688c-0.439-0.59-0.984-0.885-1.635-0.885c-0.615,0-1.14,0.296-1.573,0.889
		S337.286,487.299,337.286,488.496z"/>
	<path d="M344.139,488.5c0-1.611,0.338-2.827,1.016-3.647c0.676-0.82,1.533-1.23,2.57-1.23c1.02,0,1.872,0.41,2.558,1.23
		s1.028,2.004,1.028,3.551c0,1.676-0.337,2.924-1.011,3.744s-1.532,1.23-2.575,1.23c-1.025,0-1.88-0.411-2.563-1.235
		C344.479,491.32,344.139,490.105,344.139,488.5z M345.466,488.496c0,1.208,0.22,2.107,0.659,2.696
		c0.439,0.59,0.984,0.885,1.635,0.885c0.609,0,1.132-0.298,1.568-0.894c0.437-0.595,0.655-1.491,0.655-2.688
		c0-1.203-0.22-2.1-0.659-2.688c-0.439-0.59-0.984-0.885-1.635-0.885c-0.615,0-1.14,0.296-1.573,0.889
		S345.466,487.299,345.466,488.496z"/>
	<path d="M352.759,493.167v-12.885h1.292v7.359l3.08-3.809h1.679l-2.928,3.466l3.218,5.868h-1.591l-2.543-4.784l-0.915,1.084v3.7
		H352.759z"/>
	<path d="M364.914,490.161l1.336,0.202c-0.223,0.996-0.626,1.748-1.209,2.254c-0.583,0.508-1.305,0.761-2.166,0.761
		c-1.084,0-1.962-0.411-2.633-1.235c-0.671-0.822-1.006-2.011-1.006-3.563c0-1.611,0.338-2.84,1.016-3.687
		c0.676-0.847,1.533-1.271,2.57-1.271c0.99,0,1.816,0.416,2.479,1.248s0.993,2.036,0.993,3.612l-0.009,0.422h-5.713
		c0.053,1.049,0.296,1.84,0.729,2.373s0.961,0.8,1.582,0.8C363.856,492.077,364.533,491.438,364.914,490.161z M360.651,487.604
		h4.271c-0.059-0.809-0.231-1.412-0.519-1.811c-0.416-0.58-0.946-0.87-1.591-0.87c-0.58,0-1.075,0.241-1.485,0.726
		C360.918,486.131,360.692,486.783,360.651,487.604z"/>
	<path d="M367.322,482.128v-1.846h1.397v1.45c0,0.832-0.1,1.447-0.299,1.846s-0.498,0.706-0.896,0.923l-0.316-0.615
		c0.51-0.258,0.776-0.844,0.8-1.758H367.322z"/>
	<path d="M374.854,492.016c-0.434,0.451-0.885,0.791-1.354,1.02s-0.955,0.343-1.459,0.343c-0.797,0-1.433-0.24-1.907-0.721
		s-0.712-1.128-0.712-1.942c0-0.539,0.111-1.017,0.334-1.433s0.527-0.741,0.914-0.976s0.973-0.407,1.758-0.519
		c1.055-0.154,1.828-0.339,2.32-0.554l0.009-0.404c0-0.639-0.114-1.087-0.343-1.345c-0.322-0.375-0.817-0.563-1.485-0.563
		c-0.604,0-1.055,0.125-1.354,0.375c-0.299,0.251-0.519,0.721-0.659,1.409l-1.274-0.211c0.182-1.002,0.549-1.731,1.104-2.188
		c0.553-0.457,1.346-0.686,2.377-0.686c0.803,0,1.433,0.151,1.89,0.452c0.457,0.303,0.745,0.676,0.866,1.121
		c0.119,0.445,0.18,1.096,0.18,1.951v2.109c0,1.477,0.027,2.407,0.084,2.791c0.055,0.384,0.165,0.757,0.329,1.12h-1.354
		C374.983,492.845,374.896,492.461,374.854,492.016z M374.749,488.482c-0.475,0.234-1.181,0.434-2.118,0.598
		c-0.545,0.094-0.926,0.201-1.143,0.32c-0.217,0.121-0.386,0.291-0.506,0.51c-0.12,0.221-0.18,0.474-0.18,0.761
		c0,0.445,0.138,0.802,0.413,1.067c0.275,0.268,0.656,0.4,1.143,0.4c0.463,0,0.884-0.12,1.261-0.36
		c0.379-0.24,0.661-0.561,0.849-0.962s0.281-0.986,0.281-1.754V488.482z"/>
	<path d="M139.79,513.167v-1.283l4.881-6.82c-0.557,0.035-1.046,0.053-1.469,0.053h-3.123v-1.283h6.267v1.046l-4.157,5.924
		l-0.801,1.081c0.58-0.053,1.125-0.079,1.635-0.079h3.543v1.362H139.79z"/>
	<path d="M152.85,512.016c-0.434,0.451-0.885,0.791-1.354,1.02s-0.955,0.343-1.459,0.343c-0.797,0-1.433-0.24-1.907-0.721
		s-0.712-1.128-0.712-1.942c0-0.539,0.111-1.017,0.334-1.433s0.527-0.741,0.914-0.976s0.973-0.407,1.758-0.519
		c1.055-0.154,1.828-0.339,2.32-0.554l0.009-0.404c0-0.639-0.114-1.087-0.343-1.345c-0.322-0.375-0.817-0.563-1.485-0.563
		c-0.604,0-1.055,0.125-1.354,0.375c-0.299,0.251-0.519,0.721-0.659,1.409l-1.274-0.211c0.182-1.002,0.549-1.731,1.103-2.188
		s1.346-0.686,2.377-0.686c0.803,0,1.433,0.151,1.89,0.452c0.457,0.303,0.746,0.676,0.866,1.121s0.18,1.096,0.18,1.951v2.109
		c0,1.477,0.028,2.407,0.083,2.791s0.166,0.757,0.33,1.12h-1.354C152.979,512.845,152.891,512.461,152.85,512.016z M152.744,508.482
		c-0.475,0.234-1.181,0.434-2.118,0.598c-0.545,0.094-0.926,0.201-1.143,0.32c-0.217,0.121-0.385,0.291-0.505,0.51
		c-0.12,0.221-0.18,0.474-0.18,0.761c0,0.445,0.138,0.802,0.413,1.067c0.275,0.268,0.656,0.4,1.143,0.4
		c0.463,0,0.883-0.12,1.261-0.36s0.661-0.561,0.848-0.962s0.281-0.986,0.281-1.754V508.482z"/>
	<path d="M155.921,513.167v-12.885h1.292v7.359l3.08-3.809h1.679l-2.927,3.466l3.218,5.868h-1.591l-2.542-4.784l-0.916,1.084v3.7
		H155.921z"/>
	<path d="M163.247,513.167v-9.334h1.169v1.415c0.299-0.656,0.573-1.091,0.822-1.305s0.529-0.321,0.839-0.321
		c0.434,0,0.876,0.17,1.327,0.51l-0.439,1.468c-0.322-0.229-0.636-0.343-0.94-0.343c-0.275,0-0.527,0.097-0.756,0.29
		s-0.39,0.463-0.483,0.809c-0.164,0.604-0.246,1.245-0.246,1.925v4.887H163.247z"/>
	<path d="M173.282,510.161l1.336,0.202c-0.223,0.996-0.625,1.748-1.208,2.254c-0.583,0.508-1.305,0.761-2.167,0.761
		c-1.084,0-1.961-0.411-2.632-1.235c-0.671-0.822-1.006-2.011-1.006-3.563c0-1.611,0.338-2.84,1.015-3.687s1.534-1.271,2.571-1.271
		c0.99,0,1.816,0.416,2.479,1.248s0.993,2.036,0.993,3.612l-0.009,0.422h-5.713c0.053,1.049,0.296,1.84,0.729,2.373
		s0.961,0.8,1.582,0.8C172.224,512.077,172.901,511.438,173.282,510.161z M169.019,507.604h4.271
		c-0.059-0.809-0.231-1.412-0.519-1.811c-0.416-0.58-0.946-0.87-1.591-0.87c-0.58,0-1.075,0.241-1.485,0.726
		C169.286,506.131,169.06,506.783,169.019,507.604z"/>
	<path d="M175.668,510.372l1.292-0.246c0.076,0.659,0.284,1.149,0.623,1.47c0.339,0.321,0.789,0.481,1.35,0.481
		c0.562,0,0.996-0.139,1.302-0.417c0.307-0.278,0.46-0.632,0.46-1.06c0-0.369-0.132-0.656-0.396-0.861
		c-0.182-0.141-0.621-0.316-1.318-0.527c-1.008-0.311-1.682-0.574-2.021-0.791s-0.604-0.507-0.791-0.87s-0.281-0.776-0.281-1.239
		c0-0.797,0.255-1.444,0.765-1.942s1.216-0.747,2.118-0.747c0.568,0,1.068,0.103,1.499,0.308s0.76,0.48,0.989,0.826
		s0.387,0.841,0.475,1.485l-1.266,0.211c-0.117-1.02-0.671-1.529-1.661-1.529c-0.563,0-0.981,0.112-1.257,0.337
		s-0.413,0.512-0.413,0.862c0,0.345,0.132,0.616,0.396,0.814c0.159,0.116,0.628,0.303,1.409,0.56
		c1.074,0.341,1.768,0.612,2.083,0.814c0.315,0.203,0.56,0.479,0.735,0.828s0.263,0.765,0.263,1.246
		c0,0.892-0.283,1.614-0.848,2.166s-1.337,0.827-2.316,0.827C177.025,513.378,175.961,512.376,175.668,510.372z"/>
	<path d="M187.657,513.167v-9.334h1.169v1.318c0.281-0.513,0.625-0.896,1.031-1.149c0.407-0.253,0.873-0.38,1.399-0.38
		c0.41,0,0.788,0.081,1.136,0.241c0.348,0.162,0.629,0.373,0.842,0.633c0.213,0.262,0.373,0.6,0.479,1.016
		c0.105,0.416,0.158,1.055,0.158,1.916v5.739h-1.292v-5.684c0-0.687-0.059-1.188-0.176-1.505s-0.3-0.562-0.549-0.734
		s-0.538-0.26-0.866-0.26c-0.621,0-1.116,0.231-1.485,0.695c-0.369,0.463-0.554,1.258-0.554,2.384v5.104H187.657z"/>
	<path d="M195.698,502.102v-1.819h1.292v1.819H195.698z M195.698,513.167v-9.334h1.292v9.334H195.698z"/>
	<path d="M204.114,510.161l1.336,0.202c-0.223,0.996-0.625,1.748-1.208,2.254c-0.583,0.508-1.305,0.761-2.167,0.761
		c-1.084,0-1.961-0.411-2.632-1.235c-0.671-0.822-1.006-2.011-1.006-3.563c0-1.611,0.338-2.84,1.015-3.687s1.534-1.271,2.571-1.271
		c0.99,0,1.816,0.416,2.479,1.248s0.993,2.036,0.993,3.612l-0.009,0.422h-5.713c0.053,1.049,0.296,1.84,0.729,2.373
		s0.961,0.8,1.582,0.8C203.057,512.077,203.733,511.438,204.114,510.161z M199.852,507.604h4.271
		c-0.059-0.809-0.231-1.412-0.519-1.811c-0.416-0.58-0.946-0.87-1.591-0.87c-0.58,0-1.075,0.241-1.485,0.726
		C200.118,506.131,199.893,506.783,199.852,507.604z"/>
	<path d="M206.958,513.167v-12.885h1.292v12.885H206.958z"/>
	<path d="M210.102,502.102v-1.819h1.292v1.819H210.102z M210.102,513.167v-9.334h1.292v9.334H210.102z"/>
	<path d="M213.219,513.167v-9.334h1.169v1.318c0.281-0.513,0.625-0.896,1.031-1.149c0.407-0.253,0.873-0.38,1.399-0.38
		c0.41,0,0.788,0.081,1.136,0.241c0.348,0.162,0.629,0.373,0.842,0.633c0.213,0.262,0.373,0.6,0.479,1.016
		c0.105,0.416,0.158,1.055,0.158,1.916v5.739h-1.292v-5.684c0-0.687-0.059-1.188-0.176-1.505s-0.3-0.562-0.549-0.734
		s-0.538-0.26-0.866-0.26c-0.621,0-1.116,0.231-1.485,0.695c-0.369,0.463-0.554,1.258-0.554,2.384v5.104H213.219z"/>
	<path d="M221.26,502.102v-1.819h1.292v1.819H221.26z M221.26,513.167v-9.334h1.292v9.334H221.26z"/>
	<path d="M223.981,508.5c0-1.611,0.338-2.827,1.015-3.647s1.534-1.23,2.571-1.23c1.02,0,1.872,0.41,2.558,1.23
		s1.028,2.004,1.028,3.551c0,1.676-0.337,2.924-1.011,3.744s-1.532,1.23-2.575,1.23c-1.025,0-1.879-0.411-2.562-1.235
		C224.323,511.32,223.981,510.105,223.981,508.5z M225.309,508.496c0,1.208,0.22,2.107,0.659,2.696
		c0.439,0.59,0.984,0.885,1.635,0.885c0.609,0,1.132-0.298,1.569-0.894c0.437-0.595,0.655-1.491,0.655-2.688
		c0-1.203-0.22-2.1-0.659-2.688c-0.439-0.59-0.984-0.885-1.635-0.885c-0.615,0-1.14,0.296-1.573,0.889
		S225.309,507.299,225.309,508.496z"/>
	<path d="M233.89,513.167l-2.352-9.334h1.341l1.219,5.388l0.45,2.004l0.405-1.925l1.214-5.467h1.339l1.139,5.414l0.385,1.784
		l0.438-1.802l1.306-5.396h1.266l-2.389,9.334h-1.351l-1.222-5.59l-0.29-1.591l-1.547,7.181H233.89z"/>
	<path d="M243.388,516.762l-0.141-1.485c0.287,0.094,0.534,0.141,0.739,0.141c0.276,0,0.503-0.056,0.682-0.167
		c0.179-0.111,0.327-0.284,0.444-0.519c0.041-0.082,0.211-0.6,0.511-1.551l-2.912-9.348h1.397l1.6,5.402
		c0.199,0.674,0.384,1.394,0.554,2.161c0.146-0.727,0.322-1.435,0.527-2.126l1.635-5.438h1.301l-2.904,9.492
		c-0.381,1.23-0.682,2.052-0.902,2.466c-0.22,0.412-0.469,0.71-0.748,0.892s-0.594,0.272-0.946,0.272
		C243.978,516.955,243.699,516.891,243.388,516.762z"/>
	<path d="M255.502,509.748l1.274,0.202c-0.146,1.113-0.514,1.963-1.103,2.549s-1.296,0.879-2.123,0.879
		c-1.002,0-1.827-0.411-2.474-1.235c-0.647-0.822-0.971-2.04-0.971-3.651c0-1.623,0.327-2.84,0.98-3.651s1.493-1.218,2.518-1.218
		c0.791,0,1.458,0.246,2,0.738s0.889,1.23,1.042,2.215l-1.257,0.229c-0.123-0.63-0.337-1.101-0.642-1.413
		c-0.305-0.312-0.671-0.468-1.099-0.468c-0.639,0-1.167,0.283-1.586,0.849s-0.628,1.463-0.628,2.693c0,1.271,0.201,2.191,0.602,2.76
		s0.916,0.853,1.542,0.853c0.492,0,0.913-0.188,1.261-0.567C255.188,511.133,255.409,510.545,255.502,509.748z"/>
	<path d="M257.875,513.167v-12.885h1.292v4.623c0.305-0.428,0.649-0.748,1.033-0.962s0.807-0.321,1.27-0.321
		c0.814,0,1.458,0.259,1.929,0.778c0.472,0.518,0.708,1.469,0.708,2.852v5.915h-1.292v-5.915c0-0.809-0.144-1.389-0.431-1.74
		s-0.683-0.527-1.187-0.527c-0.563,0-1.042,0.226-1.437,0.677s-0.593,1.251-0.593,2.399v5.106H257.875z"/>
	<path d="M269.697,508.5c0-1.611,0.338-2.827,1.015-3.647s1.534-1.23,2.571-1.23c1.02,0,1.872,0.41,2.558,1.23
		s1.028,2.004,1.028,3.551c0,1.676-0.337,2.924-1.011,3.744s-1.532,1.23-2.575,1.23c-1.025,0-1.879-0.411-2.562-1.235
		C270.038,511.32,269.697,510.105,269.697,508.5z M271.024,508.496c0,1.208,0.22,2.107,0.659,2.696
		c0.439,0.59,0.984,0.885,1.635,0.885c0.609,0,1.132-0.298,1.569-0.894c0.437-0.595,0.655-1.491,0.655-2.688
		c0-1.203-0.22-2.1-0.659-2.688c-0.439-0.59-0.984-0.885-1.635-0.885c-0.615,0-1.14,0.296-1.573,0.889
		S271.024,507.299,271.024,508.496z"/>
	<path d="M283.317,513.167v-1.178c-0.234,0.451-0.536,0.796-0.905,1.032c-0.369,0.238-0.768,0.356-1.195,0.356
		c-0.902,0-1.683-0.427-2.342-1.278c-0.659-0.854-0.989-2.053-0.989-3.6c0-1.061,0.146-1.96,0.438-2.698s0.683-1.286,1.171-1.644
		c0.489-0.357,1.031-0.536,1.628-0.536c0.427,0,0.823,0.113,1.189,0.339c0.365,0.226,0.668,0.54,0.908,0.944v-4.623h1.31v12.885
		H283.317z M279.213,508.509c0,1.207,0.209,2.104,0.629,2.689c0.419,0.586,0.907,0.879,1.464,0.879c0.551,0,1.029-0.281,1.433-0.844
		c0.405-0.563,0.607-1.412,0.607-2.549c0-1.307-0.202-2.26-0.607-2.86c-0.404-0.601-0.915-0.901-1.53-0.901
		c-0.545,0-1.015,0.289-1.407,0.866C279.409,506.366,279.213,507.272,279.213,508.509z"/>
	<path d="M286.403,513.167v-12.885h1.292v7.359l3.08-3.809h1.679l-2.927,3.466l3.218,5.868h-1.591l-2.542-4.784l-0.916,1.084v3.7
		H286.403z"/>
	<path d="M293.001,510.372l1.292-0.246c0.076,0.659,0.283,1.149,0.623,1.47c0.339,0.321,0.789,0.481,1.35,0.481
		c0.562,0,0.996-0.139,1.302-0.417c0.307-0.278,0.46-0.632,0.46-1.06c0-0.369-0.132-0.656-0.396-0.861
		c-0.182-0.141-0.621-0.316-1.318-0.527c-1.008-0.311-1.682-0.574-2.021-0.791s-0.604-0.507-0.791-0.87s-0.281-0.776-0.281-1.239
		c0-0.797,0.255-1.444,0.765-1.942s1.216-0.747,2.118-0.747c0.568,0,1.068,0.103,1.499,0.308s0.76,0.48,0.989,0.826
		s0.387,0.841,0.475,1.485l-1.266,0.211c-0.117-1.02-0.671-1.529-1.661-1.529c-0.563,0-0.981,0.112-1.257,0.337
		s-0.413,0.512-0.413,0.862c0,0.345,0.132,0.616,0.396,0.814c0.159,0.116,0.628,0.303,1.409,0.56
		c1.074,0.341,1.768,0.612,2.083,0.814c0.315,0.203,0.56,0.479,0.735,0.828s0.263,0.765,0.263,1.246
		c0,0.892-0.283,1.614-0.848,2.166s-1.337,0.827-2.316,0.827C294.357,513.378,293.294,512.376,293.001,510.372z"/>
	<path d="M300.168,513.167v-1.283l4.881-6.82c-0.557,0.035-1.046,0.053-1.469,0.053h-3.123v-1.283h6.267v1.046l-4.157,5.924
		l-0.801,1.081c0.58-0.053,1.125-0.079,1.635-0.079h3.543v1.362H300.168z"/>
	<path d="M311.17,511.752l0.176,1.397c-0.357,0.094-0.68,0.141-0.967,0.141c-0.451,0-0.814-0.09-1.09-0.269
		c-0.275-0.178-0.464-0.423-0.567-0.733s-0.154-0.929-0.154-1.854v-5.37h-0.949v-1.23h0.949v-2.312l1.292-0.949v3.261h1.31v1.23
		h-1.31v5.458c0,0.504,0.038,0.829,0.114,0.976c0.111,0.211,0.319,0.316,0.624,0.316
		C310.746,511.813,310.936,511.793,311.17,511.752z"/>
	<path d="M317.437,512.016c-0.434,0.451-0.885,0.791-1.354,1.02s-0.955,0.343-1.459,0.343c-0.797,0-1.433-0.24-1.907-0.721
		s-0.712-1.128-0.712-1.942c0-0.539,0.111-1.017,0.334-1.433s0.527-0.741,0.914-0.976s0.973-0.407,1.758-0.519
		c1.055-0.154,1.828-0.339,2.32-0.554l0.009-0.404c0-0.639-0.114-1.087-0.343-1.345c-0.322-0.375-0.817-0.563-1.485-0.563
		c-0.604,0-1.055,0.125-1.354,0.375c-0.299,0.251-0.519,0.721-0.659,1.409l-1.274-0.211c0.182-1.002,0.549-1.731,1.103-2.188
		s1.346-0.686,2.377-0.686c0.803,0,1.433,0.151,1.89,0.452c0.457,0.303,0.746,0.676,0.866,1.121s0.18,1.096,0.18,1.951v2.109
		c0,1.477,0.028,2.407,0.083,2.791s0.166,0.757,0.33,1.12H317.7C317.565,512.845,317.478,512.461,317.437,512.016z M317.331,508.482
		c-0.475,0.234-1.181,0.434-2.118,0.598c-0.545,0.094-0.926,0.201-1.143,0.32c-0.217,0.121-0.385,0.291-0.505,0.51
		c-0.12,0.221-0.18,0.474-0.18,0.761c0,0.445,0.138,0.802,0.413,1.067c0.275,0.268,0.656,0.4,1.143,0.4
		c0.463,0,0.883-0.12,1.261-0.36s0.661-0.561,0.848-0.962s0.281-0.986,0.281-1.754V508.482z"/>
	<path d="M320.714,508.118l-0.932,0.971v-1.391l0.932-0.967v-6.449h1.292v5.108l0.967-1.004v1.378l-0.967,1.007v6.396h-1.292
		V508.118z"/>
	<path d="M329.11,509.748l1.274,0.202c-0.146,1.113-0.514,1.963-1.104,2.549c-0.588,0.586-1.296,0.879-2.122,0.879
		c-1.002,0-1.827-0.411-2.474-1.235c-0.648-0.822-0.972-2.04-0.972-3.651c0-1.623,0.326-2.84,0.979-3.651s1.493-1.218,2.519-1.218
		c0.791,0,1.457,0.246,1.999,0.738s0.89,1.23,1.042,2.215l-1.257,0.229c-0.123-0.63-0.337-1.101-0.642-1.413
		c-0.305-0.312-0.671-0.468-1.099-0.468c-0.639,0-1.168,0.283-1.586,0.849c-0.42,0.565-0.629,1.463-0.629,2.693
		c0,1.271,0.2,2.191,0.602,2.76s0.916,0.853,1.543,0.853c0.492,0,0.912-0.188,1.262-0.567
		C328.795,511.133,329.017,510.545,329.11,509.748z"/>
	<path d="M336.837,510.161l1.336,0.202c-0.223,0.996-0.626,1.748-1.208,2.254c-0.584,0.508-1.306,0.761-2.167,0.761
		c-1.084,0-1.962-0.411-2.632-1.235c-0.672-0.822-1.007-2.011-1.007-3.563c0-1.611,0.339-2.84,1.015-3.687
		c0.678-0.847,1.534-1.271,2.571-1.271c0.99,0,1.816,0.416,2.479,1.248s0.993,2.036,0.993,3.612l-0.009,0.422h-5.713
		c0.053,1.049,0.296,1.84,0.729,2.373s0.961,0.8,1.582,0.8C335.779,512.077,336.456,511.438,336.837,510.161z M332.574,507.604
		h4.271c-0.059-0.809-0.231-1.412-0.519-1.811c-0.416-0.58-0.946-0.87-1.591-0.87c-0.58,0-1.075,0.241-1.485,0.726
		C332.841,506.131,332.615,506.783,332.574,507.604z"/>
	<path d="M339.767,513.167v-9.334h1.169v1.318c0.28-0.513,0.624-0.896,1.031-1.149c0.406-0.253,0.872-0.38,1.399-0.38
		c0.409,0,0.788,0.081,1.136,0.241c0.348,0.162,0.629,0.373,0.843,0.633c0.213,0.262,0.372,0.6,0.478,1.016s0.158,1.055,0.158,1.916
		v5.739h-1.292v-5.684c0-0.687-0.059-1.188-0.176-1.505s-0.301-0.562-0.55-0.734s-0.537-0.26-0.865-0.26
		c-0.621,0-1.116,0.231-1.485,0.695c-0.369,0.463-0.554,1.258-0.554,2.384v5.104H339.767z M342.113,502.673l0.958-2.461h1.696
		l-1.582,2.461H342.113z"/>
	<path d="M352.08,513.167v-9.334h1.169v1.318c0.28-0.513,0.624-0.896,1.031-1.149c0.406-0.253,0.872-0.38,1.399-0.38
		c0.409,0,0.788,0.081,1.136,0.241c0.348,0.162,0.629,0.373,0.843,0.633c0.213,0.262,0.372,0.6,0.478,1.016s0.158,1.055,0.158,1.916
		v5.739h-1.292v-5.684c0-0.687-0.059-1.188-0.176-1.505s-0.301-0.562-0.549-0.734c-0.25-0.173-0.538-0.26-0.866-0.26
		c-0.621,0-1.116,0.231-1.485,0.695c-0.369,0.463-0.554,1.258-0.554,2.384v5.104H352.08z"/>
	<path d="M360.121,502.102v-1.819h1.292v1.819H360.121z M360.121,513.167v-9.334h1.292v9.334H360.121z"/>
	<path d="M368.537,510.161l1.336,0.202c-0.223,0.996-0.626,1.748-1.209,2.254c-0.583,0.508-1.305,0.761-2.166,0.761
		c-1.084,0-1.962-0.411-2.633-1.235c-0.671-0.822-1.006-2.011-1.006-3.563c0-1.611,0.338-2.84,1.016-3.687
		c0.676-0.847,1.533-1.271,2.57-1.271c0.99,0,1.816,0.416,2.479,1.248s0.993,2.036,0.993,3.612l-0.009,0.422h-5.713
		c0.053,1.049,0.296,1.84,0.729,2.373s0.961,0.8,1.582,0.8C367.479,512.077,368.156,511.438,368.537,510.161z M364.274,507.604
		h4.271c-0.059-0.809-0.231-1.412-0.519-1.811c-0.416-0.58-0.946-0.87-1.591-0.87c-0.58,0-1.075,0.241-1.485,0.726
		C364.541,506.131,364.315,506.783,364.274,507.604z"/>
	<path d="M374.115,511.752l0.176,1.397c-0.357,0.094-0.68,0.141-0.967,0.141c-0.451,0-0.814-0.09-1.09-0.269
		c-0.275-0.178-0.465-0.423-0.566-0.733c-0.104-0.311-0.154-0.929-0.154-1.854v-5.37h-0.949v-1.23h0.949v-2.312l1.292-0.949v3.261
		h1.31v1.23h-1.31v5.458c0,0.504,0.038,0.829,0.114,0.976c0.111,0.211,0.319,0.316,0.624,0.316
		C373.69,511.813,373.881,511.793,374.115,511.752z"/>
	<path d="M375.299,513.167v-9.334h1.169v1.415c0.299-0.656,0.572-1.091,0.821-1.305s0.529-0.321,0.84-0.321
		c0.434,0,0.876,0.17,1.327,0.51l-0.439,1.468c-0.322-0.229-0.636-0.343-0.94-0.343c-0.275,0-0.527,0.097-0.756,0.29
		s-0.39,0.463-0.483,0.809c-0.164,0.604-0.246,1.245-0.246,1.925v4.887H375.299z"/>
	<path d="M382.187,513.167l-2.352-9.334h1.341l1.219,5.388l0.451,2.004l0.404-1.925l1.214-5.467h1.34l1.139,5.414l0.386,1.784
		l0.438-1.802l1.307-5.396h1.266l-2.39,9.334h-1.351l-1.221-5.59l-0.291-1.591l-1.547,7.181H382.187z"/>
	<path d="M396.176,512.016c-0.434,0.451-0.885,0.791-1.354,1.02s-0.955,0.343-1.459,0.343c-0.797,0-1.433-0.24-1.907-0.721
		s-0.712-1.128-0.712-1.942c0-0.539,0.111-1.017,0.334-1.433s0.527-0.741,0.914-0.976s0.973-0.407,1.758-0.519
		c1.055-0.154,1.828-0.339,2.32-0.554l0.009-0.404c0-0.639-0.114-1.087-0.343-1.345c-0.322-0.375-0.817-0.563-1.485-0.563
		c-0.604,0-1.055,0.125-1.354,0.375c-0.299,0.251-0.519,0.721-0.659,1.409l-1.274-0.211c0.182-1.002,0.55-1.731,1.103-2.188
		c0.555-0.457,1.347-0.686,2.378-0.686c0.803,0,1.433,0.151,1.89,0.452c0.457,0.303,0.745,0.676,0.865,1.121
		s0.181,1.096,0.181,1.951v2.109c0,1.477,0.027,2.407,0.083,2.791s0.166,0.757,0.33,1.12h-1.354
		C396.305,512.845,396.217,512.461,396.176,512.016z M396.07,508.482c-0.475,0.234-1.181,0.434-2.118,0.598
		c-0.545,0.094-0.926,0.201-1.143,0.32c-0.217,0.121-0.386,0.291-0.505,0.51c-0.121,0.221-0.181,0.474-0.181,0.761
		c0,0.445,0.138,0.802,0.413,1.067c0.275,0.268,0.656,0.4,1.143,0.4c0.463,0,0.883-0.12,1.262-0.36
		c0.377-0.24,0.66-0.561,0.848-0.962s0.281-0.986,0.281-1.754V508.482z"/>
	<path d="M399.452,508.118l-0.932,0.971v-1.391l0.932-0.967v-6.449h1.292v5.108l0.967-1.004v1.378l-0.967,1.007v6.396h-1.292
		V508.118z"/>
	<path d="M403.078,516.762l-0.141-1.485c0.287,0.094,0.533,0.141,0.739,0.141c0.275,0,0.503-0.056,0.682-0.167
		s0.327-0.284,0.444-0.519c0.041-0.082,0.211-0.6,0.51-1.551l-2.911-9.348h1.397l1.6,5.402c0.199,0.674,0.384,1.394,0.554,2.161
		c0.146-0.727,0.322-1.435,0.527-2.126l1.635-5.438h1.301l-2.903,9.492c-0.382,1.23-0.683,2.052-0.902,2.466
		c-0.221,0.412-0.47,0.71-0.749,0.892c-0.278,0.182-0.594,0.272-0.946,0.272C403.668,516.955,403.389,516.891,403.078,516.762z"/>
	<path d="M415.192,509.748l1.274,0.202c-0.146,1.113-0.514,1.963-1.104,2.549c-0.588,0.586-1.296,0.879-2.122,0.879
		c-1.002,0-1.827-0.411-2.474-1.235c-0.648-0.822-0.972-2.04-0.972-3.651c0-1.623,0.326-2.84,0.979-3.651s1.493-1.218,2.519-1.218
		c0.791,0,1.457,0.246,1.999,0.738s0.89,1.23,1.042,2.215l-1.257,0.229c-0.123-0.63-0.337-1.101-0.642-1.413
		c-0.305-0.312-0.671-0.468-1.099-0.468c-0.639,0-1.168,0.283-1.586,0.849c-0.42,0.565-0.629,1.463-0.629,2.693
		c0,1.271,0.2,2.191,0.602,2.76s0.916,0.853,1.543,0.853c0.492,0,0.912-0.188,1.262-0.567
		C414.877,511.133,415.099,510.545,415.192,509.748z"/>
	<path d="M417.565,513.167v-12.885h1.292v4.623c0.305-0.428,0.648-0.748,1.033-0.962c0.383-0.214,0.807-0.321,1.27-0.321
		c0.814,0,1.457,0.259,1.93,0.778c0.471,0.518,0.707,1.469,0.707,2.852v5.915h-1.292v-5.915c0-0.809-0.144-1.389-0.431-1.74
		s-0.683-0.527-1.187-0.527c-0.563,0-1.042,0.226-1.437,0.677c-0.396,0.451-0.594,1.251-0.594,2.399v5.106H417.565z"/>
	<path d="M429.879,502.102v-1.819h1.292v1.819H429.879z M429.879,513.167v-9.334h1.292v9.334H429.879z"/>
	<path d="M437.262,516.744v-12.911h1.195v1.213c0.293-0.504,0.617-0.867,0.974-1.09c0.357-0.223,0.767-0.334,1.229-0.334
		c0.603,0,1.146,0.179,1.633,0.536c0.485,0.357,0.876,0.9,1.171,1.631c0.296,0.729,0.443,1.606,0.443,2.632
		c0,1.588-0.333,2.812-0.998,3.669c-0.665,0.859-1.445,1.288-2.342,1.288c-0.398,0-0.771-0.103-1.116-0.308s-0.645-0.495-0.896-0.87
		v4.544H437.262z M438.441,508.553c0,1.207,0.201,2.096,0.604,2.668c0.403,0.57,0.892,0.856,1.464,0.856
		c0.55,0,1.032-0.296,1.447-0.888s0.622-1.506,0.622-2.742c0-1.219-0.202-2.121-0.604-2.707c-0.403-0.586-0.895-0.879-1.474-0.879
		c-0.52,0-0.993,0.315-1.42,0.945S438.441,507.352,438.441,508.553z"/>
	<path d="M445.354,513.167v-12.885h1.292v12.885H445.354z"/>
	<path d="M453.523,512.016c-0.434,0.451-0.885,0.791-1.354,1.02s-0.955,0.343-1.459,0.343c-0.797,0-1.433-0.24-1.907-0.721
		s-0.712-1.128-0.712-1.942c0-0.539,0.111-1.017,0.334-1.433s0.527-0.741,0.914-0.976s0.973-0.407,1.758-0.519
		c1.055-0.154,1.828-0.339,2.32-0.554l0.009-0.404c0-0.639-0.114-1.087-0.343-1.345c-0.322-0.375-0.817-0.563-1.485-0.563
		c-0.604,0-1.055,0.125-1.354,0.375c-0.299,0.251-0.519,0.721-0.659,1.409l-1.274-0.211c0.182-1.002,0.55-1.731,1.103-2.188
		c0.555-0.457,1.347-0.686,2.378-0.686c0.803,0,1.433,0.151,1.89,0.452c0.457,0.303,0.745,0.676,0.865,1.121
		s0.181,1.096,0.181,1.951v2.109c0,1.477,0.027,2.407,0.083,2.791s0.166,0.757,0.33,1.12h-1.354
		C453.652,512.845,453.564,512.461,453.523,512.016z M453.418,508.482c-0.475,0.234-1.181,0.434-2.118,0.598
		c-0.545,0.094-0.926,0.201-1.143,0.32c-0.217,0.121-0.386,0.291-0.505,0.51c-0.121,0.221-0.181,0.474-0.181,0.761
		c0,0.445,0.138,0.802,0.413,1.067c0.275,0.268,0.656,0.4,1.143,0.4c0.463,0,0.883-0.12,1.262-0.36
		c0.377-0.24,0.66-0.561,0.848-0.962s0.281-0.986,0.281-1.754V508.482z"/>
	<path d="M456.054,510.372l1.292-0.246c0.076,0.659,0.283,1.149,0.622,1.47c0.34,0.321,0.79,0.481,1.351,0.481
		c0.562,0,0.995-0.139,1.303-0.417c0.307-0.278,0.46-0.632,0.46-1.06c0-0.369-0.132-0.656-0.396-0.861
		c-0.182-0.141-0.621-0.316-1.318-0.527c-1.008-0.311-1.682-0.574-2.021-0.791s-0.604-0.507-0.791-0.87s-0.281-0.776-0.281-1.239
		c0-0.797,0.255-1.444,0.765-1.942s1.216-0.747,2.118-0.747c0.568,0,1.068,0.103,1.498,0.308c0.432,0.205,0.761,0.48,0.989,0.826
		s0.387,0.841,0.475,1.485l-1.266,0.211c-0.117-1.02-0.671-1.529-1.661-1.529c-0.563,0-0.981,0.112-1.257,0.337
		s-0.413,0.512-0.413,0.862c0,0.345,0.132,0.616,0.396,0.814c0.158,0.116,0.628,0.303,1.408,0.56
		c1.074,0.341,1.769,0.612,2.084,0.814c0.315,0.203,0.561,0.479,0.735,0.828s0.263,0.765,0.263,1.246
		c0,0.892-0.283,1.614-0.848,2.166c-0.566,0.552-1.338,0.827-2.316,0.827C457.41,513.378,456.347,512.376,456.054,510.372z"/>
	<path d="M466.61,511.752l0.176,1.397c-0.357,0.094-0.68,0.141-0.967,0.141c-0.451,0-0.814-0.09-1.09-0.269
		c-0.275-0.178-0.465-0.423-0.567-0.733s-0.153-0.929-0.153-1.854v-5.37h-0.949v-1.23h0.949v-2.312l1.292-0.949v3.261h1.31v1.23
		h-1.31v5.458c0,0.504,0.038,0.829,0.114,0.976c0.111,0.211,0.319,0.316,0.624,0.316
		C466.186,511.813,466.376,511.793,466.61,511.752z"/>
	<path d="M468.021,516.762l-0.141-1.485c0.287,0.094,0.533,0.141,0.739,0.141c0.275,0,0.503-0.056,0.682-0.167
		s0.327-0.284,0.444-0.519c0.041-0.082,0.211-0.6,0.51-1.551l-2.911-9.348h1.397l1.6,5.402c0.199,0.674,0.384,1.394,0.554,2.161
		c0.146-0.727,0.322-1.435,0.527-2.126l1.635-5.438h1.301l-2.903,9.492c-0.382,1.23-0.683,2.052-0.902,2.466
		c-0.221,0.412-0.47,0.71-0.749,0.892c-0.278,0.182-0.594,0.272-0.946,0.272C468.611,516.955,468.332,516.891,468.021,516.762z"/>
	<path d="M480.136,509.748l1.274,0.202c-0.146,1.113-0.514,1.963-1.104,2.549c-0.588,0.586-1.296,0.879-2.122,0.879
		c-1.002,0-1.827-0.411-2.474-1.235c-0.648-0.822-0.972-2.04-0.972-3.651c0-1.623,0.326-2.84,0.979-3.651s1.493-1.218,2.519-1.218
		c0.791,0,1.457,0.246,1.999,0.738s0.89,1.23,1.042,2.215l-1.257,0.229c-0.123-0.63-0.337-1.101-0.642-1.413
		c-0.305-0.312-0.671-0.468-1.099-0.468c-0.639,0-1.168,0.283-1.586,0.849c-0.42,0.565-0.629,1.463-0.629,2.693
		c0,1.271,0.2,2.191,0.602,2.76s0.916,0.853,1.543,0.853c0.492,0,0.912-0.188,1.262-0.567
		C479.82,511.133,480.042,510.545,480.136,509.748z"/>
	<path d="M481.885,513.167v-1.283l4.882-6.82c-0.558,0.035-1.047,0.053-1.469,0.053h-3.123v-1.283h6.267v1.046l-4.157,5.924
		l-0.802,1.081c0.58-0.053,1.126-0.079,1.636-0.079h3.543v1.362H481.885z"/>
	<path d="M489.778,513.167v-9.334h1.169v1.318c0.28-0.513,0.624-0.896,1.031-1.149c0.406-0.253,0.872-0.38,1.399-0.38
		c0.409,0,0.788,0.081,1.136,0.241c0.348,0.162,0.629,0.373,0.843,0.633c0.213,0.262,0.372,0.6,0.478,1.016s0.158,1.055,0.158,1.916
		v5.739H494.7v-5.684c0-0.687-0.059-1.188-0.176-1.505s-0.301-0.562-0.55-0.734s-0.537-0.26-0.865-0.26
		c-0.621,0-1.116,0.231-1.485,0.695c-0.369,0.463-0.554,1.258-0.554,2.384v5.104H489.778z"/>
	<path d="M497.505,516.762l-0.141-1.485c0.287,0.094,0.533,0.141,0.739,0.141c0.275,0,0.503-0.056,0.682-0.167
		s0.327-0.284,0.444-0.519c0.041-0.082,0.211-0.6,0.51-1.551l-2.911-9.348h1.397l1.6,5.402c0.199,0.674,0.384,1.394,0.554,2.161
		c0.146-0.727,0.322-1.435,0.527-2.126l1.635-5.438h1.301l-2.903,9.492c-0.382,1.23-0.683,2.052-0.902,2.466
		c-0.221,0.412-0.47,0.71-0.749,0.892c-0.278,0.182-0.594,0.272-0.946,0.272C498.095,516.955,497.815,516.891,497.505,516.762z"/>
	<path d="M509.619,509.748l1.274,0.202c-0.146,1.113-0.515,1.963-1.103,2.549c-0.59,0.586-1.297,0.879-2.123,0.879
		c-1.002,0-1.827-0.411-2.475-1.235c-0.647-0.822-0.971-2.04-0.971-3.651c0-1.623,0.326-2.84,0.98-3.651
		c0.652-0.812,1.492-1.218,2.518-1.218c0.791,0,1.457,0.246,2,0.738c0.541,0.492,0.889,1.23,1.041,2.215l-1.257,0.229
		c-0.123-0.63-0.337-1.101-0.642-1.413c-0.305-0.312-0.671-0.468-1.099-0.468c-0.639,0-1.168,0.283-1.587,0.849
		s-0.628,1.463-0.628,2.693c0,1.271,0.2,2.191,0.603,2.76c0.4,0.568,0.915,0.853,1.542,0.853c0.492,0,0.912-0.188,1.261-0.567
		C509.304,511.133,509.525,510.545,509.619,509.748z"/>
	<path d="M511.992,513.167v-12.885h1.292v4.623c0.305-0.428,0.648-0.748,1.032-0.962s0.808-0.321,1.271-0.321
		c0.814,0,1.457,0.259,1.929,0.778c0.472,0.518,0.708,1.469,0.708,2.852v5.915h-1.292v-5.915c0-0.809-0.144-1.389-0.431-1.74
		s-0.683-0.527-1.187-0.527c-0.563,0-1.041,0.226-1.438,0.677c-0.395,0.451-0.593,1.251-0.593,2.399v5.106H511.992z"/>
	<path d="M140.458,533.167v-9.334h1.169v1.318c0.281-0.513,0.625-0.896,1.031-1.149c0.407-0.253,0.873-0.38,1.399-0.38
		c0.41,0,0.788,0.081,1.136,0.241c0.348,0.162,0.629,0.373,0.842,0.633c0.213,0.262,0.373,0.6,0.479,1.016
		c0.105,0.416,0.158,1.055,0.158,1.916v5.739h-1.292v-5.684c0-0.687-0.059-1.188-0.176-1.505s-0.3-0.562-0.549-0.734
		s-0.538-0.26-0.866-0.26c-0.621,0-1.116,0.231-1.485,0.695c-0.369,0.463-0.554,1.258-0.554,2.384v5.104H140.458z"/>
	<path d="M153.488,532.016c-0.434,0.451-0.885,0.791-1.354,1.02s-0.955,0.343-1.459,0.343c-0.797,0-1.433-0.24-1.907-0.721
		s-0.712-1.128-0.712-1.942c0-0.539,0.111-1.017,0.334-1.433s0.527-0.741,0.914-0.976s0.973-0.407,1.758-0.519
		c1.055-0.154,1.828-0.339,2.32-0.554l0.009-0.404c0-0.639-0.114-1.087-0.343-1.345c-0.322-0.375-0.817-0.563-1.485-0.563
		c-0.604,0-1.055,0.125-1.354,0.375c-0.299,0.251-0.519,0.721-0.659,1.409l-1.274-0.211c0.182-1.002,0.549-1.731,1.103-2.188
		s1.346-0.686,2.377-0.686c0.803,0,1.433,0.151,1.89,0.452c0.457,0.303,0.746,0.676,0.866,1.121s0.18,1.096,0.18,1.951v2.109
		c0,1.477,0.028,2.407,0.083,2.791s0.166,0.757,0.33,1.12h-1.354C153.617,532.845,153.529,532.461,153.488,532.016z
		 M153.383,528.482c-0.475,0.234-1.181,0.434-2.118,0.598c-0.545,0.094-0.926,0.201-1.143,0.32c-0.217,0.121-0.385,0.291-0.505,0.51
		c-0.12,0.221-0.18,0.474-0.18,0.761c0,0.445,0.138,0.802,0.413,1.067c0.275,0.268,0.656,0.4,1.143,0.4
		c0.463,0,0.883-0.12,1.261-0.36s0.661-0.561,0.848-0.962s0.281-0.986,0.281-1.754V528.482z"/>
	<path d="M156.543,536.744v-12.911h1.195v1.213c0.292-0.504,0.617-0.867,0.974-1.09c0.356-0.223,0.766-0.334,1.229-0.334
		c0.603,0,1.146,0.179,1.632,0.536c0.486,0.357,0.876,0.9,1.171,1.631c0.295,0.729,0.443,1.606,0.443,2.632
		c0,1.588-0.333,2.812-0.998,3.669c-0.665,0.859-1.446,1.288-2.342,1.288c-0.398,0-0.771-0.103-1.116-0.308s-0.645-0.495-0.896-0.87
		v4.544H156.543z M157.722,528.553c0,1.207,0.202,2.096,0.605,2.668c0.403,0.57,0.891,0.856,1.464,0.856
		c0.549,0,1.031-0.296,1.446-0.888s0.623-1.506,0.623-2.742c0-1.219-0.202-2.121-0.605-2.707s-0.894-0.879-1.473-0.879
		c-0.521,0-0.994,0.315-1.42,0.945S157.722,527.352,157.722,528.553z"/>
	<path d="M164.635,533.167v-9.334h1.169v1.415c0.299-0.656,0.573-1.091,0.822-1.305s0.529-0.321,0.839-0.321
		c0.434,0,0.876,0.17,1.327,0.51l-0.439,1.468c-0.322-0.229-0.636-0.343-0.94-0.343c-0.275,0-0.527,0.097-0.756,0.29
		s-0.39,0.463-0.483,0.809c-0.164,0.604-0.246,1.245-0.246,1.925v4.887H164.635z"/>
	<path d="M174.754,530.161l1.336,0.202c-0.223,0.996-0.625,1.748-1.208,2.254c-0.583,0.508-1.305,0.761-2.167,0.761
		c-1.084,0-1.961-0.411-2.632-1.235c-0.671-0.822-1.006-2.011-1.006-3.563c0-1.611,0.338-2.84,1.015-3.687s1.534-1.271,2.571-1.271
		c0.99,0,1.816,0.416,2.479,1.248s0.993,2.036,0.993,3.612l-0.009,0.422h-5.713c0.053,1.049,0.296,1.84,0.729,2.373
		s0.961,0.8,1.582,0.8C173.696,532.077,174.373,531.438,174.754,530.161z M170.491,527.604h4.271
		c-0.059-0.809-0.231-1.412-0.519-1.811c-0.416-0.58-0.946-0.87-1.591-0.87c-0.58,0-1.075,0.241-1.485,0.726
		C170.758,526.131,170.532,526.783,170.491,527.604z M172.179,532.956h0.888c-0.182,0.521-0.272,1.005-0.272,1.45
		c0,0.404,0.1,0.727,0.299,0.967s0.445,0.36,0.738,0.36c0.363,0,0.765-0.135,1.204-0.404v1.046
		c-0.563,0.352-1.087,0.527-1.573,0.527c-0.463,0-0.842-0.17-1.138-0.51s-0.444-0.823-0.444-1.45
		C171.88,534.444,171.979,533.782,172.179,532.956z"/>
	<path d="M177.024,533.167v-1.283l4.881-6.82c-0.557,0.035-1.046,0.053-1.469,0.053h-3.123v-1.283h6.267v1.046l-4.157,5.924
		l-0.801,1.081c0.58-0.053,1.125-0.079,1.635-0.079h3.543v1.362H177.024z M179.512,522.673v-1.969h1.608v1.969H179.512z"/>
	<path d="M190.15,530.161l1.336,0.202c-0.223,0.996-0.625,1.748-1.208,2.254c-0.583,0.508-1.305,0.761-2.167,0.761
		c-1.084,0-1.961-0.411-2.632-1.235c-0.671-0.822-1.006-2.011-1.006-3.563c0-1.611,0.338-2.84,1.015-3.687s1.534-1.271,2.571-1.271
		c0.99,0,1.816,0.416,2.479,1.248s0.993,2.036,0.993,3.612l-0.009,0.422h-5.713c0.053,1.049,0.296,1.84,0.729,2.373
		s0.961,0.8,1.582,0.8C189.092,532.077,189.769,531.438,190.15,530.161z M185.887,527.604h4.271
		c-0.059-0.809-0.231-1.412-0.519-1.811c-0.416-0.58-0.946-0.87-1.591-0.87c-0.58,0-1.075,0.241-1.485,0.726
		C186.154,526.131,185.928,526.783,185.887,527.604z"/>
	<path d="M192.994,533.167v-9.334h1.169v1.318c0.281-0.513,0.625-0.896,1.031-1.149c0.407-0.253,0.873-0.38,1.399-0.38
		c0.41,0,0.788,0.081,1.136,0.241c0.348,0.162,0.629,0.373,0.842,0.633c0.213,0.262,0.373,0.6,0.479,1.016
		c0.105,0.416,0.158,1.055,0.158,1.916v5.739h-1.292v-5.684c0-0.687-0.059-1.188-0.176-1.505s-0.3-0.562-0.549-0.734
		s-0.538-0.26-0.866-0.26c-0.621,0-1.116,0.231-1.485,0.695c-0.369,0.463-0.554,1.258-0.554,2.384v5.104H192.994z"/>
	<path d="M201.036,522.102v-1.819h1.292v1.819H201.036z M201.036,533.167v-9.334h1.292v9.334H201.036z"/>
	<path d="M209.181,532.016c-0.434,0.451-0.885,0.791-1.354,1.02s-0.955,0.343-1.459,0.343c-0.797,0-1.433-0.24-1.907-0.721
		s-0.712-1.128-0.712-1.942c0-0.539,0.111-1.017,0.334-1.433s0.527-0.741,0.914-0.976s0.973-0.407,1.758-0.519
		c1.055-0.154,1.828-0.339,2.32-0.554l0.009-0.404c0-0.639-0.114-1.087-0.343-1.345c-0.322-0.375-0.817-0.563-1.485-0.563
		c-0.604,0-1.055,0.125-1.354,0.375c-0.299,0.251-0.519,0.721-0.659,1.409l-1.274-0.211c0.182-1.002,0.549-1.731,1.103-2.188
		s1.346-0.686,2.377-0.686c0.803,0,1.433,0.151,1.89,0.452c0.457,0.303,0.746,0.676,0.866,1.121s0.18,1.096,0.18,1.951v2.109
		c0,1.477,0.028,2.407,0.083,2.791s0.166,0.757,0.33,1.12h-1.354C209.31,532.845,209.222,532.461,209.181,532.016z M209.075,528.482
		c-0.475,0.234-1.181,0.434-2.118,0.598c-0.545,0.094-0.926,0.201-1.143,0.32c-0.217,0.121-0.385,0.291-0.505,0.51
		c-0.12,0.221-0.18,0.474-0.18,0.761c0,0.445,0.138,0.802,0.413,1.067c0.275,0.268,0.656,0.4,1.143,0.4
		c0.463,0,0.883-0.12,1.261-0.36s0.661-0.561,0.848-0.962s0.281-0.986,0.281-1.754V528.482z"/>
	<path d="M216.511,536.744v-12.911h1.195v1.213c0.292-0.504,0.617-0.867,0.974-1.09c0.356-0.223,0.766-0.334,1.229-0.334
		c0.603,0,1.146,0.179,1.632,0.536c0.486,0.357,0.876,0.9,1.171,1.631c0.295,0.729,0.443,1.606,0.443,2.632
		c0,1.588-0.333,2.812-0.998,3.669c-0.665,0.859-1.446,1.288-2.342,1.288c-0.398,0-0.771-0.103-1.116-0.308s-0.645-0.495-0.896-0.87
		v4.544H216.511z M217.69,528.553c0,1.207,0.202,2.096,0.605,2.668c0.403,0.57,0.891,0.856,1.464,0.856
		c0.549,0,1.031-0.296,1.446-0.888s0.623-1.506,0.623-2.742c0-1.219-0.202-2.121-0.605-2.707s-0.894-0.879-1.473-0.879
		c-0.521,0-0.994,0.315-1.42,0.945S217.69,527.352,217.69,528.553z"/>
	<path d="M224.603,533.167v-9.334h1.169v1.415c0.299-0.656,0.573-1.091,0.822-1.305s0.529-0.321,0.839-0.321
		c0.434,0,0.876,0.17,1.327,0.51l-0.439,1.468c-0.322-0.229-0.636-0.343-0.94-0.343c-0.275,0-0.527,0.097-0.756,0.29
		s-0.39,0.463-0.483,0.809c-0.164,0.604-0.246,1.245-0.246,1.925v4.887H224.603z"/>
	<path d="M229.146,533.167v-1.283l4.881-6.82c-0.557,0.035-1.046,0.053-1.469,0.053h-3.123v-1.283h6.267v1.046l-4.157,5.924
		l-0.801,1.081c0.58-0.053,1.125-0.079,1.635-0.079h3.543v1.362H229.146z"/>
	<path d="M237.25,536.762l-0.141-1.485c0.287,0.094,0.534,0.141,0.739,0.141c0.276,0,0.503-0.056,0.682-0.167
		c0.179-0.111,0.327-0.284,0.444-0.519c0.041-0.082,0.211-0.6,0.511-1.551l-2.912-9.348h1.397l1.6,5.402
		c0.199,0.674,0.384,1.394,0.554,2.161c0.146-0.727,0.322-1.435,0.527-2.126l1.635-5.438h1.301l-2.904,9.492
		c-0.381,1.23-0.682,2.052-0.902,2.466c-0.22,0.412-0.469,0.71-0.748,0.892s-0.594,0.272-0.946,0.272
		C237.84,536.955,237.562,536.891,237.25,536.762z"/>
	<path d="M253.792,533.167v-1.371c-0.299,0.527-0.65,0.923-1.055,1.187s-0.861,0.396-1.371,0.396c-0.604,0-1.119-0.163-1.547-0.487
		c-0.428-0.326-0.713-0.737-0.857-1.235s-0.215-1.178-0.215-2.039v-5.783h1.292v5.177c0,0.961,0.048,1.604,0.145,1.93
		c0.097,0.324,0.275,0.586,0.536,0.781c0.261,0.197,0.558,0.295,0.892,0.295c0.621,0,1.131-0.255,1.529-0.765
		c0.34-0.439,0.51-1.245,0.51-2.417v-5.001h1.301v9.334H253.792z"/>
	<path d="M258.337,533.167l-2.352-9.334h1.341l1.219,5.388l0.451,2.004l0.405-1.925l1.214-5.467h1.339l1.139,5.414l0.385,1.784
		l0.438-1.802l1.306-5.396h1.266l-2.389,9.334h-1.351l-1.222-5.59l-0.29-1.591l-1.547,7.181H258.337z"/>
	<path d="M267.038,533.167v-1.283l4.881-6.82c-0.557,0.035-1.046,0.053-1.469,0.053h-3.123v-1.283h6.267v1.046l-4.157,5.924
		l-0.801,1.081c0.58-0.053,1.125-0.079,1.635-0.079h3.543v1.362H267.038z"/>
	<path d="M274.568,533.94l1.266,0.229c0.059,0.501,0.234,0.874,0.527,1.118c0.293,0.245,0.7,0.367,1.222,0.367
		c0.568,0,1.021-0.137,1.358-0.408c0.337-0.273,0.567-0.679,0.69-1.218c0.076-0.328,0.114-1.02,0.114-2.075
		c-0.281,0.402-0.598,0.705-0.949,0.908c-0.352,0.204-0.741,0.306-1.169,0.306c-0.914,0-1.673-0.387-2.276-1.16
		c-0.691-0.891-1.037-2.083-1.037-3.577c0-1.002,0.152-1.878,0.457-2.628s0.705-1.301,1.2-1.652s1.05-0.527,1.666-0.527
		c0.451,0,0.863,0.11,1.235,0.332c0.372,0.221,0.702,0.553,0.989,0.995v-1.116h1.195v8.068c0,1.436-0.117,2.459-0.352,3.071
		s-0.618,1.096-1.151,1.451c-0.533,0.354-1.175,0.531-1.925,0.531c-0.99,0-1.752-0.267-2.285-0.8S274.55,534.884,274.568,533.94z
		 M275.64,528.333c0,1.228,0.203,2.123,0.608,2.688c0.405,0.563,0.901,0.846,1.488,0.846c0.587,0,1.086-0.276,1.497-0.828
		c0.411-0.553,0.617-1.431,0.617-2.635c0-1.175-0.211-2.049-0.634-2.621c-0.423-0.573-0.937-0.859-1.541-0.859
		c-0.541,0-1.015,0.286-1.422,0.859C275.844,526.354,275.64,527.205,275.64,528.333z"/>
	<path d="M282.861,533.167v-12.885h1.292v12.885H282.861z"/>
	<path d="M291.388,530.161l1.336,0.202c-0.223,0.996-0.625,1.748-1.208,2.254c-0.583,0.508-1.305,0.761-2.167,0.761
		c-1.084,0-1.961-0.411-2.632-1.235c-0.671-0.822-1.006-2.011-1.006-3.563c0-1.611,0.338-2.84,1.015-3.687s1.534-1.271,2.571-1.271
		c0.99,0,1.816,0.416,2.479,1.248s0.993,2.036,0.993,3.612l-0.009,0.422h-5.713c0.053,1.049,0.296,1.84,0.729,2.373
		s0.961,0.8,1.582,0.8C290.331,532.077,291.007,531.438,291.388,530.161z M287.125,527.604h4.271
		c-0.059-0.809-0.231-1.412-0.519-1.811c-0.416-0.58-0.946-0.87-1.591-0.87c-0.58,0-1.075,0.241-1.485,0.726
		C287.392,526.131,287.167,526.783,287.125,527.604z M288.813,532.956h0.888c-0.182,0.521-0.272,1.005-0.272,1.45
		c0,0.404,0.1,0.727,0.299,0.967s0.445,0.36,0.738,0.36c0.363,0,0.765-0.135,1.204-0.404v1.046
		c-0.563,0.352-1.087,0.527-1.573,0.527c-0.463,0-0.842-0.17-1.138-0.51s-0.444-0.823-0.444-1.45
		C288.514,534.444,288.614,533.782,288.813,532.956z"/>
	<path d="M299.333,533.167v-1.178c-0.234,0.451-0.536,0.796-0.905,1.032c-0.369,0.238-0.768,0.356-1.195,0.356
		c-0.902,0-1.683-0.427-2.342-1.278c-0.659-0.854-0.989-2.053-0.989-3.6c0-1.061,0.146-1.96,0.438-2.698s0.683-1.286,1.171-1.644
		c0.489-0.357,1.031-0.536,1.628-0.536c0.427,0,0.823,0.113,1.189,0.339s0.668,0.54,0.908,0.944v-4.623h1.31v12.885H299.333z
		 M295.229,528.509c0,1.207,0.209,2.104,0.629,2.689c0.419,0.586,0.907,0.879,1.464,0.879c0.551,0,1.029-0.281,1.434-0.844
		c0.404-0.563,0.606-1.412,0.606-2.549c0-1.307-0.202-2.26-0.606-2.86c-0.405-0.601-0.915-0.901-1.53-0.901
		c-0.545,0-1.015,0.289-1.407,0.866C295.425,526.366,295.229,527.272,295.229,528.509z"/>
	<path d="M302.402,533.167v-9.334h1.169v1.318c0.281-0.513,0.625-0.896,1.031-1.149c0.407-0.253,0.873-0.38,1.399-0.38
		c0.41,0,0.788,0.081,1.136,0.241c0.348,0.162,0.629,0.373,0.842,0.633c0.213,0.262,0.373,0.6,0.479,1.016
		c0.105,0.416,0.158,1.055,0.158,1.916v5.739h-1.292v-5.684c0-0.687-0.059-1.188-0.176-1.505s-0.3-0.562-0.549-0.734
		s-0.538-0.26-0.866-0.26c-0.621,0-1.116,0.231-1.485,0.695c-0.369,0.463-0.554,1.258-0.554,2.384v5.104H302.402z"/>
	<path d="M310.443,522.102v-1.819h1.292v1.819H310.443z M310.443,533.167v-9.334h1.292v9.334H310.443z"/>
	<path d="M318.859,530.161l1.336,0.202c-0.223,0.996-0.626,1.748-1.208,2.254c-0.583,0.508-1.305,0.761-2.167,0.761
		c-1.084,0-1.961-0.411-2.632-1.235c-0.671-0.822-1.006-2.011-1.006-3.563c0-1.611,0.338-2.84,1.015-3.687s1.534-1.271,2.571-1.271
		c0.99,0,1.816,0.416,2.479,1.248s0.993,2.036,0.993,3.612l-0.009,0.422h-5.713c0.053,1.049,0.296,1.84,0.729,2.373
		s0.961,0.8,1.582,0.8C317.802,532.077,318.479,531.438,318.859,530.161z M314.597,527.604h4.271
		c-0.059-0.809-0.231-1.412-0.519-1.811c-0.416-0.58-0.946-0.87-1.591-0.87c-0.58,0-1.075,0.241-1.485,0.726
		C314.863,526.131,314.638,526.783,314.597,527.604z"/>
	<path d="M321.704,533.167v-9.334h1.169v1.318c0.28-0.513,0.624-0.896,1.031-1.149c0.406-0.253,0.872-0.38,1.399-0.38
		c0.409,0,0.788,0.081,1.136,0.241c0.348,0.162,0.629,0.373,0.843,0.633c0.213,0.262,0.372,0.6,0.478,1.016s0.158,1.055,0.158,1.916
		v5.739h-1.292v-5.684c0-0.687-0.059-1.188-0.176-1.505s-0.301-0.562-0.55-0.734s-0.537-0.26-0.865-0.26
		c-0.621,0-1.116,0.231-1.485,0.695c-0.369,0.463-0.554,1.258-0.554,2.384v5.104H321.704z"/>
	<path d="M329.746,522.102v-1.819h1.292v1.819H329.746z M329.746,533.167v-9.334h1.292v9.334H329.746z"/>
	<path d="M337.885,533.167v-1.371c-0.299,0.527-0.65,0.923-1.055,1.187s-0.861,0.396-1.371,0.396c-0.604,0-1.119-0.163-1.547-0.487
		c-0.428-0.326-0.714-0.737-0.857-1.235s-0.215-1.178-0.215-2.039v-5.783h1.292v5.177c0,0.961,0.048,1.604,0.146,1.93
		c0.096,0.324,0.274,0.586,0.535,0.781c0.261,0.197,0.559,0.295,0.893,0.295c0.621,0,1.131-0.255,1.529-0.765
		c0.34-0.439,0.51-1.245,0.51-2.417v-5.001h1.301v9.334H337.885z"/>
	<path d="M345.188,536.744v-12.911h1.195v1.213c0.293-0.504,0.617-0.867,0.974-1.09c0.357-0.223,0.767-0.334,1.229-0.334
		c0.603,0,1.146,0.179,1.633,0.536c0.485,0.357,0.876,0.9,1.171,1.631c0.296,0.729,0.443,1.606,0.443,2.632
		c0,1.588-0.333,2.812-0.997,3.669c-0.666,0.859-1.446,1.288-2.343,1.288c-0.398,0-0.771-0.103-1.116-0.308s-0.645-0.495-0.896-0.87
		v4.544H345.188z M346.368,528.553c0,1.207,0.201,2.096,0.604,2.668c0.403,0.57,0.892,0.856,1.464,0.856
		c0.55,0,1.032-0.296,1.447-0.888s0.622-1.506,0.622-2.742c0-1.219-0.202-2.121-0.604-2.707c-0.403-0.586-0.895-0.879-1.474-0.879
		c-0.52,0-0.993,0.315-1.42,0.945S346.368,527.352,346.368,528.553z"/>
	<path d="M353.28,533.167v-9.334h1.169v1.415c0.299-0.656,0.572-1.091,0.822-1.305c0.248-0.214,0.528-0.321,0.839-0.321
		c0.434,0,0.876,0.17,1.327,0.51l-0.439,1.468c-0.322-0.229-0.636-0.343-0.94-0.343c-0.275,0-0.527,0.097-0.756,0.29
		s-0.39,0.463-0.483,0.809c-0.164,0.604-0.246,1.245-0.246,1.925v4.887H353.28z"/>
	<path d="M357.824,533.167v-1.283l4.882-6.82c-0.558,0.035-1.047,0.053-1.469,0.053h-3.123v-1.283h6.267v1.046l-4.157,5.924
		l-0.802,1.081c0.58-0.053,1.126-0.079,1.636-0.079h3.543v1.362H357.824z"/>
	<path d="M370.865,530.161l1.336,0.202c-0.223,0.996-0.626,1.748-1.209,2.254c-0.583,0.508-1.305,0.761-2.166,0.761
		c-1.084,0-1.962-0.411-2.633-1.235c-0.671-0.822-1.006-2.011-1.006-3.563c0-1.611,0.338-2.84,1.016-3.687
		c0.676-0.847,1.533-1.271,2.57-1.271c0.99,0,1.816,0.416,2.479,1.248s0.993,2.036,0.993,3.612l-0.009,0.422h-5.713
		c0.053,1.049,0.296,1.84,0.729,2.373s0.961,0.8,1.582,0.8C369.808,532.077,370.484,531.438,370.865,530.161z M366.603,527.604
		h4.271c-0.059-0.809-0.231-1.412-0.519-1.811c-0.416-0.58-0.946-0.87-1.591-0.87c-0.58,0-1.075,0.241-1.485,0.726
		C366.869,526.131,366.644,526.783,366.603,527.604z"/>
	<path d="M375.016,533.167l-2.352-9.334h1.341l1.219,5.388l0.45,2.004l0.405-1.925l1.214-5.467h1.34l1.139,5.414l0.385,1.784
		l0.438-1.802l1.307-5.396h1.266l-2.39,9.334h-1.35l-1.223-5.59l-0.289-1.591l-1.547,7.181H375.016z"/>
	<path d="M389.317,530.161l1.336,0.202c-0.223,0.996-0.626,1.748-1.208,2.254c-0.584,0.508-1.306,0.761-2.167,0.761
		c-1.084,0-1.962-0.411-2.632-1.235c-0.672-0.822-1.007-2.011-1.007-3.563c0-1.611,0.339-2.84,1.015-3.687
		c0.678-0.847,1.534-1.271,2.571-1.271c0.99,0,1.816,0.416,2.479,1.248s0.993,2.036,0.993,3.612l-0.009,0.422h-5.713
		c0.053,1.049,0.296,1.84,0.729,2.373s0.961,0.8,1.582,0.8C388.26,532.077,388.937,531.438,389.317,530.161z M385.055,527.604h4.271
		c-0.059-0.809-0.231-1.412-0.519-1.811c-0.416-0.58-0.946-0.87-1.591-0.87c-0.58,0-1.075,0.241-1.485,0.726
		C385.321,526.131,385.096,526.783,385.055,527.604z M386.742,532.956h0.888c-0.182,0.521-0.272,1.005-0.272,1.45
		c0,0.404,0.1,0.727,0.299,0.967s0.445,0.36,0.738,0.36c0.363,0,0.765-0.135,1.204-0.404v1.046
		c-0.563,0.352-1.087,0.527-1.573,0.527c-0.463,0-0.843-0.17-1.139-0.51s-0.443-0.823-0.443-1.45
		C386.443,534.444,386.543,533.782,386.742,532.956z"/>
	<path d="M391.588,533.167v-1.283l4.882-6.82c-0.558,0.035-1.047,0.053-1.469,0.053h-3.123v-1.283h6.267v1.046l-4.157,5.924
		l-0.802,1.081c0.58-0.053,1.126-0.079,1.636-0.079h3.543v1.362H391.588z M394.075,522.673v-1.969h1.608v1.969H394.075z"/>
	<path d="M404.713,530.161l1.336,0.202c-0.223,0.996-0.626,1.748-1.209,2.254c-0.583,0.508-1.305,0.761-2.166,0.761
		c-1.084,0-1.962-0.411-2.633-1.235c-0.671-0.822-1.006-2.011-1.006-3.563c0-1.611,0.338-2.84,1.016-3.687
		c0.676-0.847,1.533-1.271,2.57-1.271c0.99,0,1.816,0.416,2.479,1.248s0.993,2.036,0.993,3.612l-0.009,0.422h-5.713
		c0.053,1.049,0.296,1.84,0.729,2.373s0.961,0.8,1.582,0.8C403.655,532.077,404.332,531.438,404.713,530.161z M400.45,527.604h4.271
		c-0.059-0.809-0.231-1.412-0.519-1.811c-0.416-0.58-0.946-0.87-1.591-0.87c-0.58,0-1.075,0.241-1.485,0.726
		C400.717,526.131,400.491,526.783,400.45,527.604z"/>
	<path d="M407.558,533.167v-9.334h1.169v1.318c0.28-0.513,0.624-0.896,1.031-1.149c0.406-0.253,0.872-0.38,1.399-0.38
		c0.409,0,0.788,0.081,1.136,0.241c0.348,0.162,0.629,0.373,0.843,0.633c0.213,0.262,0.372,0.6,0.478,1.016s0.158,1.055,0.158,1.916
		v5.739h-1.292v-5.684c0-0.687-0.059-1.188-0.176-1.505s-0.301-0.562-0.55-0.734s-0.537-0.26-0.865-0.26
		c-0.621,0-1.116,0.231-1.485,0.695c-0.369,0.463-0.554,1.258-0.554,2.384v5.104H407.558z"/>
	<path d="M415.6,522.102v-1.819h1.292v1.819H415.6z M415.6,533.167v-9.334h1.292v9.334H415.6z"/>
	<path d="M423.744,532.016c-0.434,0.451-0.885,0.791-1.354,1.02s-0.955,0.343-1.459,0.343c-0.797,0-1.433-0.24-1.907-0.721
		s-0.712-1.128-0.712-1.942c0-0.539,0.111-1.017,0.334-1.433s0.527-0.741,0.914-0.976s0.973-0.407,1.758-0.519
		c1.055-0.154,1.828-0.339,2.32-0.554l0.009-0.404c0-0.639-0.114-1.087-0.343-1.345c-0.322-0.375-0.817-0.563-1.485-0.563
		c-0.604,0-1.055,0.125-1.354,0.375c-0.299,0.251-0.519,0.721-0.659,1.409l-1.274-0.211c0.182-1.002,0.55-1.731,1.103-2.188
		c0.555-0.457,1.347-0.686,2.378-0.686c0.803,0,1.433,0.151,1.89,0.452c0.457,0.303,0.745,0.676,0.865,1.121
		s0.181,1.096,0.181,1.951v2.109c0,1.477,0.027,2.407,0.083,2.791s0.166,0.757,0.33,1.12h-1.354
		C423.873,532.845,423.785,532.461,423.744,532.016z M423.639,528.482c-0.475,0.234-1.181,0.434-2.118,0.598
		c-0.545,0.094-0.926,0.201-1.143,0.32c-0.217,0.121-0.386,0.291-0.505,0.51c-0.121,0.221-0.181,0.474-0.181,0.761
		c0,0.445,0.138,0.802,0.413,1.067c0.275,0.268,0.656,0.4,1.143,0.4c0.463,0,0.883-0.12,1.262-0.36
		c0.377-0.24,0.66-0.561,0.848-0.962s0.281-0.986,0.281-1.754V528.482z"/>
</g>
<line fill="none" stroke="#C1272D" stroke-width="3" x1="108" y1="510" x2="133" y2="510"/>
<line fill="none" stroke="#FBB03B" stroke-width="3" stroke-dasharray="4,4" x1="108" y1="530" x2="133" y2="530"/>
<g>
	<path d="M613.381,566.5h-8.203l4.299-9.473L613.381,566.5z M611.768,565.939l-2.725-6.61l-3.011,6.61H611.768z"/>
	<path d="M614.276,566.5v-10.021h1.005V566.5H614.276z"/>
	<path d="M620.107,569.282v-12.804h2.229v1.012h-1.224v10.78h1.224v1.012H620.107z"/>
	<path d="M623.252,566.5v-7.26h0.902v1.012c0.2-0.376,0.457-0.666,0.771-0.87c0.313-0.204,0.657-0.306,1.03-0.306
		c0.418,0,0.772,0.107,1.062,0.323c0.288,0.215,0.494,0.529,0.617,0.941c0.238-0.421,0.511-0.737,0.819-0.948
		c0.31-0.211,0.651-0.316,1.026-0.316c0.571,0,1.021,0.193,1.351,0.581s0.494,1.007,0.494,1.859v4.983h-1.005v-4.578
		c0-0.521-0.038-0.889-0.113-1.105c-0.076-0.217-0.198-0.384-0.368-0.503c-0.169-0.118-0.359-0.178-0.57-0.178
		c-0.436,0-0.79,0.172-1.065,0.517c-0.274,0.345-0.412,0.887-0.412,1.625v4.223h-1.005v-4.722c0-0.603-0.093-1.026-0.276-1.273
		c-0.186-0.246-0.439-0.369-0.763-0.369c-0.46,0-0.823,0.186-1.091,0.558c-0.266,0.372-0.399,1.051-0.399,2.036v3.771H623.252z"/>
	<path d="M632.815,566.5v-7.26h0.902v1.012c0.2-0.376,0.457-0.666,0.771-0.87c0.313-0.204,0.657-0.306,1.03-0.306
		c0.418,0,0.772,0.107,1.062,0.323c0.288,0.215,0.494,0.529,0.617,0.941c0.238-0.421,0.511-0.737,0.819-0.948
		c0.31-0.211,0.651-0.316,1.026-0.316c0.571,0,1.021,0.193,1.351,0.581s0.494,1.007,0.494,1.859v4.983h-1.005v-4.578
		c0-0.521-0.038-0.889-0.113-1.105c-0.076-0.217-0.198-0.384-0.368-0.503c-0.169-0.118-0.359-0.178-0.57-0.178
		c-0.436,0-0.79,0.172-1.065,0.517c-0.274,0.345-0.412,0.887-0.412,1.625v4.223h-1.005v-4.722c0-0.603-0.092-1.026-0.277-1.273
		c-0.184-0.246-0.438-0.369-0.762-0.369c-0.46,0-0.824,0.186-1.09,0.558c-0.268,0.372-0.4,1.051-0.4,2.036v3.771H632.815z"/>
	<path d="M644.102,569.282h-2.229v-1.012h1.217v-10.78h-1.217v-1.012h2.229V569.282z"/>
	<path d="M607.871,576.275h0.212v0.991h-0.186c-1.011,0-1.517,0.402-1.517,1.206c0,0.344,0.104,0.626,0.312,0.848
		s0.462,0.332,0.764,0.332c0.506,0,0.992-0.299,1.458-0.896l0.734,0.759c-0.328,0.405-0.663,0.698-1.005,0.879
		c-0.342,0.18-0.768,0.27-1.278,0.27c-0.61,0-1.1-0.203-1.467-0.609c-0.366-0.406-0.55-0.915-0.55-1.527
		c0-0.849,0.326-1.442,0.978-1.78c-0.547-0.365-0.82-0.901-0.82-1.609c0-0.584,0.177-1.074,0.529-1.469
		c0.354-0.396,0.833-0.593,1.439-0.593c0.766,0,1.42,0.326,1.962,0.978l-0.728,0.711c-0.465-0.419-0.895-0.629-1.291-0.629
		c-0.291,0-0.521,0.098-0.692,0.291c-0.171,0.194-0.256,0.432-0.256,0.71C606.47,575.896,606.937,576.275,607.871,576.275z"/>
	<path d="M613.976,583.282v-12.804h2.229v1.012h-1.224v10.78h1.224v1.012H613.976z"/>
	<path d="M617.011,572.885c0-0.834,0.166-1.472,0.498-1.914s0.739-0.663,1.222-0.663c0.5,0,0.923,0.221,1.269,0.663
		s0.519,1.103,0.519,1.982c0,0.861-0.173,1.519-0.519,1.973c-0.346,0.453-0.764,0.68-1.255,0.68c-0.482,0-0.892-0.225-1.229-0.674
		C617.179,574.483,617.011,573.801,617.011,572.885z M618.761,571.155c-0.251,0-0.459,0.134-0.626,0.399
		c-0.166,0.268-0.249,0.735-0.249,1.405s0.083,1.137,0.249,1.401c0.167,0.265,0.382,0.396,0.646,0.396
		c0.241,0,0.445-0.133,0.611-0.4c0.167-0.266,0.25-0.732,0.25-1.397s-0.084-1.133-0.253-1.401S619.012,571.155,618.761,571.155z
		 M618.761,580.869l4.498-10.562h0.826l-4.483,10.562H618.761z M622.322,578.148c0-0.834,0.166-1.472,0.498-1.914
		s0.736-0.663,1.215-0.663c0.505,0,0.93,0.22,1.275,0.659c0.346,0.44,0.519,1.1,0.519,1.979c0,0.866-0.174,1.525-0.522,1.979
		c-0.348,0.453-0.765,0.68-1.252,0.68c-0.481,0-0.891-0.226-1.228-0.677S622.322,579.06,622.322,578.148z M624.079,576.419
		c-0.255,0-0.466,0.134-0.632,0.399c-0.167,0.268-0.25,0.735-0.25,1.405s0.084,1.137,0.253,1.401s0.385,0.396,0.649,0.396
		c0.237,0,0.438-0.135,0.605-0.403c0.166-0.269,0.249-0.736,0.249-1.401s-0.083-1.131-0.249-1.398
		C624.538,576.553,624.33,576.419,624.079,576.419z"/>
	<path d="M629.049,583.282h-2.229v-1.012h1.217v-10.78h-1.217v-1.012h2.229V583.282z"/>
</g>
<line fill="none" stroke="#000000" stroke-width="1.5" x1="48" y1="550" x2="634.5" y2="550"/>
<line fill="none" stroke="#000000" stroke-width="1.5" x1="68" y1="570" x2="68" y2="70"/>
<g>
	<path d="M26.846,79.5V69.479h5.544v1.183h-4.457v3.104h3.855v1.183h-3.855V79.5H26.846z"/>
	<path d="M36.888,82.282V69.479h2.229v1.012h-1.224v10.78h1.224v1.012H36.888z"/>
	<path d="M40.046,79.5V69.479h1.005v5.724l2.395-2.962h1.307l-2.277,2.696l2.503,4.564h-1.237l-1.978-3.721l-0.712,0.843V79.5
		H40.046z"/>
	<path d="M45.877,79.5V69.479h1.114l4.32,7.884v-7.884h1.039V79.5h-1.114l-4.313-7.885V79.5H45.877z"/>
	<path d="M55.782,82.282h-2.229v-1.012h1.217V70.49h-1.217v-1.012h2.229V82.282z"/>
	<path d="M21.192,87.266c0.533,0.62,0.8,1.493,0.8,2.618c0,1.158-0.26,2.082-0.779,2.772s-1.242,1.036-2.167,1.036
		c-0.953,0-1.688-0.349-2.205-1.046s-0.776-1.616-0.776-2.755c0-1.185,0.267-2.11,0.8-2.775s1.206-0.998,2.017-0.998
		c0.16,0,0.454,0.018,0.882,0.055c0.164,0.018,0.41,0.037,0.738,0.055H23.1v1.039H21.192z M19.073,86.972
		c-1.235,0-1.853,1.007-1.853,3.021c0,0.852,0.156,1.527,0.468,2.023s0.753,0.745,1.323,0.745c0.606,0,1.061-0.253,1.364-0.759
		s0.455-1.23,0.455-2.174c0-0.871-0.149-1.564-0.448-2.082S19.647,86.972,19.073,86.972z"/>
	<path d="M27.311,96.282V83.479h2.229v1.012h-1.224v10.78h1.224v1.012H27.311z"/>
	<path d="M30.558,93.5V83.479h1.634l1.951,7.096l0.39,1.483c0.096-0.369,0.242-0.905,0.438-1.606l1.971-6.973h1.463V93.5h-1.046
		v-8.381L34.963,93.5h-0.977l-2.382-8.525V93.5H30.558z"/>
	<path d="M40.148,93.5V83.479h3.097c0.729,0,1.267,0.064,1.613,0.191c0.474,0.173,0.852,0.495,1.135,0.964s0.424,1.046,0.424,1.729
		c0,0.902-0.23,1.638-0.69,2.208s-1.255,0.854-2.386,0.854h-2.105V93.5H40.148z M41.235,88.243h2.126c0.67,0,1.16-0.151,1.47-0.455
		s0.465-0.76,0.465-1.371c0-0.396-0.076-0.736-0.229-1.019s-0.337-0.476-0.554-0.581s-0.607-0.157-1.172-0.157h-2.105V88.243z"/>
	<path d="M51.544,92.604c-0.337,0.351-0.688,0.615-1.053,0.793s-0.743,0.267-1.135,0.267c-0.62,0-1.114-0.187-1.483-0.561
		s-0.554-0.877-0.554-1.511c0-0.419,0.086-0.791,0.26-1.114s0.41-0.577,0.711-0.759s0.756-0.317,1.367-0.403
		c0.82-0.121,1.422-0.264,1.805-0.431l0.007-0.314c0-0.497-0.089-0.845-0.267-1.046c-0.25-0.292-0.636-0.438-1.155-0.438
		c-0.469,0-0.82,0.098-1.053,0.292c-0.232,0.195-0.403,0.56-0.513,1.096l-0.991-0.164c0.141-0.779,0.427-1.347,0.858-1.702
		s1.047-0.533,1.849-0.533c0.625,0,1.114,0.117,1.47,0.352s0.58,0.525,0.673,0.872s0.14,0.852,0.14,1.518v1.641
		c0,1.148,0.021,1.872,0.065,2.17s0.129,0.589,0.256,0.872h-1.053C51.644,93.25,51.576,92.951,51.544,92.604z M51.462,89.856
		c-0.369,0.182-0.918,0.337-1.647,0.465c-0.424,0.073-0.72,0.156-0.889,0.25s-0.3,0.226-0.393,0.396s-0.14,0.368-0.14,0.591
		c0,0.346,0.107,0.623,0.321,0.831s0.51,0.311,0.889,0.311c0.36,0,0.687-0.093,0.981-0.28s0.514-0.437,0.66-0.749
		s0.219-0.767,0.219-1.364V89.856z"/>
	<path d="M55.782,96.282h-2.229v-1.012h1.217V84.49h-1.217v-1.012h2.229V96.282z"/>
</g>
</svg>
